<svg width="20" height="17" viewBox="0 0 20 17" fill="none" xmlns="http://www.w3.org/2000/svg">
<path d="M19.163 8.77898C18.9862 7.89511 18.4995 5.66452 17.8096 4.04848C17.3943 3.07396 16.6298 2.30708 15.6597 1.89053C14.9865 1.59741 14.2086 1.25414 13.5432 0.926303C13.0134 0.665961 12.5633 0.484043 12.1249 0.354836C11.309 0.112493 10.5047 0 9.59366 0C8.68263 0 7.87833 0.112493 7.06181 0.354194C6.62269 0.484043 6.17265 0.665318 5.64416 0.92566C4.97616 1.25478 4.1995 1.59805 3.53022 1.8886C2.55747 2.30644 1.79303 3.07332 1.3777 4.04783C0.689125 5.66067 0.201786 7.88932 0.0243387 8.77191C-0.0772437 9.27781 0.145209 9.78885 0.578541 10.0434C1.59437 10.6412 2.67448 10.8643 3.44406 10.9459V15.1358C3.44406 16.1637 4.28051 17 5.30855 17H13.8781C14.9062 17 15.7426 16.163 15.7426 15.1358V10.9466C16.5141 10.8656 17.5968 10.6438 18.6081 10.0498C19.0421 9.79528 19.2646 9.28424 19.163 8.77898ZM7.39035 1.4637C8.10657 1.25157 8.7855 1.15707 9.59366 1.15707C10.4012 1.15707 11.0807 1.25157 11.797 1.46434C11.9076 1.49713 12.0265 1.54405 12.1422 1.58584C11.6935 2.56935 10.7085 3.22374 9.59366 3.22374C8.47882 3.22374 7.49322 2.56935 7.0451 1.58519C7.16082 1.54341 7.27976 1.49648 7.39035 1.4637ZM15.7426 9.78114V7.73247C15.7426 7.41299 15.4835 7.15394 15.164 7.15394C14.8444 7.15394 14.5853 7.41299 14.5853 7.73247V15.1365C14.5853 15.526 14.2677 15.8436 13.8781 15.8436H5.30855C4.91894 15.8436 4.60133 15.5267 4.60133 15.1365V7.73247C4.60133 7.41299 4.34223 7.15394 4.0227 7.15394C3.70316 7.15394 3.44406 7.41299 3.44406 7.73247V9.77921C2.82878 9.69886 1.95826 9.50087 1.15846 9.00076C1.32884 8.15288 1.7956 6.01679 2.44239 4.50231C2.7407 3.80228 3.28912 3.25202 3.98991 2.95118C4.61805 2.67799 5.33491 2.36043 5.98298 2.04674C6.61176 3.44873 8.01142 4.38081 9.59366 4.38081C11.1759 4.38081 12.5749 3.44873 13.2043 2.04674C13.8498 2.35915 14.568 2.67734 15.2 2.95247C15.8976 3.25267 16.4466 3.80292 16.7449 4.50295C17.3924 6.02 17.8578 8.15866 18.0218 9.05347C17.231 9.51694 16.3598 9.704 15.7426 9.78114Z" fill="black"/>
</svg>
