<svg width="30" height="19" viewBox="0 0 30 19" fill="none" xmlns="http://www.w3.org/2000/svg">
<path fill-rule="evenodd" clip-rule="evenodd" d="M2.47357 9.49977C4.13239 11.2563 9.00907 15.8332 14.7777 15.8332C17.2614 15.8332 19.5763 14.965 21.537 13.8584C22.0442 13.5719 22.6886 13.7514 22.9752 14.2588C23.2612 14.7662 23.0818 15.4105 22.5746 15.6967C20.3152 16.972 17.6393 17.9444 14.7777 17.9444C6.76917 17.9444 0.24423 10.175 0.24423 10.175C-0.0814101 9.7838 -0.0814101 9.21575 0.24423 8.82454C0.24423 8.82454 6.76917 1.05518 14.7777 1.05518C22.7863 1.05518 29.3112 8.82454 29.3112 8.82454C29.6368 9.21575 29.6368 9.7838 29.3112 10.175C29.3112 10.175 28.4995 11.1542 27.094 12.4158C26.9146 12.5768 26.7251 12.7425 26.5266 12.9115C26.0833 13.2891 25.4167 13.2355 25.0388 12.7919C24.6615 12.3483 24.7148 11.6816 25.1586 11.3041C25.3423 11.1474 25.5175 10.994 25.6838 10.8446C26.268 10.3202 26.7393 9.85006 27.0782 9.49563C25.4157 7.73641 20.5421 3.16639 14.7777 3.16639C9.00907 3.16639 4.13239 7.74323 2.47357 9.49977Z" fill="black"/>
<path fill-rule="evenodd" clip-rule="evenodd" d="M14.7778 4.22168C11.865 4.22168 9.5 6.58666 9.5 9.49948C9.5 12.4123 11.865 14.7773 14.7778 14.7773C17.6906 14.7773 20.0556 12.4123 20.0556 9.49948C20.0556 6.58666 17.6906 4.22168 14.7778 4.22168ZM14.7778 6.3328C16.5253 6.3328 17.9445 7.752 17.9445 9.49948C17.9445 11.247 16.5253 12.6662 14.7778 12.6662C13.0303 12.6662 11.6111 11.247 11.6111 9.49948C11.6111 7.752 13.0303 6.3328 14.7778 6.3328Z" fill="black"/>
<path fill-rule="evenodd" clip-rule="evenodd" d="M2.54609 1.90934L25.7684 18.7983C26.2392 19.1408 26.9 19.0367 27.2425 18.5652C27.5856 18.0942 27.4811 17.4336 27.0098 17.0907L3.78746 0.20167C3.31667 -0.140801 2.65588 -0.0366522 2.31335 0.434832C1.97029 0.905847 2.07478 1.56639 2.54609 1.90934Z" fill="black"/>
</svg>
