<svg width="17" height="17" viewBox="0 0 17 17" fill="none" xmlns="http://www.w3.org/2000/svg">
<path d="M11.6564 9.38515C12.4939 8.75629 13.1051 7.89393 13.4051 6.91804C13.7052 5.94216 13.6791 4.90128 13.3304 3.94022C12.9818 2.97916 12.328 2.14571 11.46 1.55581C10.592 0.965922 9.5529 0.648926 8.48733 0.648926C7.42176 0.648926 6.38269 0.965922 5.51466 1.55581C4.64664 2.14571 3.99284 2.97916 3.64421 3.94022C3.29559 4.90128 3.26948 5.94216 3.56951 6.91804C3.86955 7.89393 4.48081 8.75629 5.31826 9.38515C3.88327 9.93388 2.6312 10.844 1.69552 12.0185C0.759834 13.193 0.175619 14.5878 0.00515238 16.0542C-0.00718684 16.1613 0.00268933 16.2696 0.0342168 16.373C0.0657443 16.4765 0.118306 16.573 0.1889 16.657C0.331472 16.8267 0.538841 16.9354 0.765388 16.9592C0.991935 16.983 1.2191 16.9199 1.39692 16.7838C1.57473 16.6477 1.68863 16.4498 1.71355 16.2336C1.90112 14.6399 2.69731 13.1679 3.95002 12.0991C5.20273 11.0302 6.82412 10.4393 8.50442 10.4393C10.1847 10.4393 11.8061 11.0302 13.0588 12.0991C14.3115 13.1679 15.1077 14.6399 15.2953 16.2336C15.3185 16.4339 15.4187 16.6189 15.5764 16.7529C15.7342 16.8869 15.9383 16.9604 16.1495 16.9592H16.2434C16.4674 16.9346 16.672 16.8265 16.8128 16.6586C16.9536 16.4906 17.0191 16.2763 16.9951 16.0624C16.8239 14.5918 16.2365 13.1934 15.296 12.0171C14.3555 10.8408 13.0974 9.93097 11.6564 9.38515ZM8.48733 8.8063C7.81155 8.8063 7.15095 8.61504 6.58906 8.2567C6.02718 7.89835 5.58924 7.38903 5.33063 6.79313C5.07202 6.19724 5.00436 5.54152 5.13619 4.90892C5.26803 4.27632 5.59345 3.69524 6.0713 3.23916C6.54914 2.78307 7.15796 2.47248 7.82075 2.34665C8.48354 2.22081 9.17054 2.2854 9.79488 2.53223C10.4192 2.77906 10.9528 3.19705 11.3283 3.73334C11.7037 4.26963 11.9041 4.90015 11.9041 5.54514C11.9041 6.41005 11.5441 7.23954 10.9034 7.85113C10.2626 8.46271 9.39352 8.8063 8.48733 8.8063Z" fill="black"/>
</svg>
