<svg width="450" height="384" viewBox="0 0 450 384" fill="none" xmlns="http://www.w3.org/2000/svg">
<path d="M147.462 0.0495071C84.5084 0.0495071 33.0286 51.025 33.0287 113.671C33.6292 129.247 36.2227 146.648 39.4035 160.107H16.9356C-4.88117 159.623 -4.88117 192.594 16.9356 192.104H49.4031C77.4412 264.966 140.184 337.814 217.147 381.879C222.049 384.667 228.056 384.667 232.958 381.879C283.838 352.747 329.197 309.044 362.297 261.196C377.813 238.766 390.554 215.425 399.889 192.104H433.044C454.861 192.588 454.861 159.617 433.044 160.107H410.358C414.587 143.972 416.77 128.93 416.982 113.671C416.983 51.025 365.472 0.0495071 302.518 0.0495071C273.214 0.0495071 245.663 11.1898 224.896 30.2052C204.146 11.2369 176.739 0.0495071 147.462 0.0495071ZM147.462 32.0801C172.96 32.0801 196.454 43.5925 211.834 62.6399C217.801 70.0324 228.856 70.6292 235.583 63.9225C255.422 46.4986 280.156 32.4435 302.518 32.0801C347.574 32.0801 383.69 67.3021 384.859 111.482C383.854 128.605 381.224 146.257 377.14 160.107H305.018C300.778 160.075 296.698 161.726 293.675 164.702L277.363 181.015L255.301 136.954C249.393 125.201 232.616 125.201 226.709 136.954L210.647 169.077L191.866 122.078C189.418 115.953 183.463 111.959 176.867 112.017C171.533 112.07 166.576 114.774 163.649 119.235L136.462 160.108H73.2459C68.6785 143.076 65.6038 126.357 65.1837 110.766C66.726 66.9253 102.652 32.0801 147.462 32.0801ZM173.429 162.231L194.116 213.948C199.205 226.771 217.051 227.574 223.271 215.26L240.989 179.825L258.707 215.26C263.605 225.016 276.619 227.111 284.331 219.384L311.611 192.104H364.984C357.282 209.06 347.523 226.283 335.954 243.007C307.502 284.138 267.451 320.384 225.052 346.691C163.867 308.723 112.68 249.16 85.8079 192.104H144.962C150.351 192.103 155.378 189.389 158.336 184.885L173.429 162.231Z" fill="black"/>
</svg>
