<svg width="449" height="427" viewBox="0 0 449 427" fill="none" xmlns="http://www.w3.org/2000/svg">
<path d="M393.656 132.667C352.302 126.437 310.354 126.437 269.021 132.667C242.354 136.667 221.698 158.802 218.781 186.469C212.417 246.76 212.417 307.906 218.781 368.187C221.698 395.865 242.354 418 269.01 422C289.688 425.115 310.51 426.677 331.333 426.667C352.156 426.667 372.979 425.115 393.646 422C420.312 418 440.969 395.865 443.885 368.198C450.25 307.906 450.25 246.76 443.885 186.479C440.969 158.802 420.312 136.677 393.656 132.667ZM401.448 363.729C400.573 372.073 394.76 378.687 387.302 379.812C350.156 385.396 312.5 385.396 275.354 379.812C267.906 378.687 262.094 372.073 261.219 363.719C255.167 306.396 255.167 248.271 261.219 190.937C262.094 182.594 267.906 175.979 275.365 174.854C293.937 172.062 312.635 170.667 331.333 170.667C350.031 170.667 368.729 172.062 387.302 174.854C394.75 175.979 400.573 182.594 401.448 190.948C407.5 248.271 407.5 306.396 401.448 363.729Z" fill="black"/>
<path d="M340.198 192H320.667C308.885 192 299.333 201.552 299.333 213.333C299.333 225.115 308.885 234.667 320.667 234.667H340.198C351.979 234.667 361.531 225.115 361.531 213.333C361.531 201.552 351.979 192 340.198 192ZM102.958 49.4479C176.625 40.4063 251.333 40.3854 325.042 49.4479C341.437 51.4583 354.771 63.9167 357.458 79.7396C359.417 91.3437 370.49 99.1875 382.052 97.1979C393.677 95.2292 401.49 84.2187 399.521 72.6042C393.708 38.3229 365.219 11.3854 330.229 7.09374C253.104 -2.36458 174.896 -2.36458 97.7708 7.09374C62.7812 11.3854 34.2917 38.3229 28.4792 72.5938C19.8229 123.51 19.8229 175.156 28.4792 226.062C34.2917 260.344 62.7812 287.281 97.7708 291.573C121.792 294.521 146.229 296.573 170.406 297.677C170.729 297.687 171.062 297.698 171.396 297.698C182.729 297.698 192.167 288.771 192.687 277.333C193.219 265.573 184.115 255.594 172.344 255.052C149.25 254 125.906 252.031 102.958 249.219C86.5625 247.208 73.2292 234.75 70.5417 218.927C62.6875 172.75 62.6875 125.917 70.5417 79.7396C73.2291 63.9167 86.5625 51.4583 102.958 49.4479ZM22 362.667H171.333C183.115 362.667 192.667 353.115 192.667 341.333C192.667 329.552 183.115 320 171.333 320H22C10.2187 320 0.666656 329.552 0.666656 341.333C0.666656 353.115 10.2187 362.667 22 362.667Z" fill="black"/>
</svg>
