<svg width="17" height="17" viewBox="0 0 17 17" fill="none" xmlns="http://www.w3.org/2000/svg">
<path d="M8.06538 8.84137C8.17258 8.94857 8.31268 9.00203 8.45305 9.00203C8.59343 9.00203 8.7338 8.94857 8.841 8.84137C9.05512 8.62724 9.05512 8.27987 8.841 8.06602L8.45278 7.67835L9.03429 7.09657L9.42223 7.48452C9.52916 7.59172 9.66953 7.64518 9.8099 7.64518C9.95028 7.64518 10.0907 7.59172 10.1976 7.48452C10.4117 7.27039 10.4117 6.9233 10.1976 6.70917L9.80963 6.32123C10.0238 6.1071 10.0238 5.76001 9.80963 5.54588C9.59551 5.33176 9.24814 5.33176 9.03429 5.54588L8.64662 5.15821C8.43277 4.94409 8.08512 4.94409 7.87127 5.15821C7.65715 5.37234 7.65715 5.71943 7.87127 5.93356L8.25894 6.32123L7.67744 6.90301L7.28976 6.51534C7.07564 6.30121 6.72855 6.30121 6.51415 6.51534C6.30002 6.72946 6.30002 7.07683 6.51415 7.29068L6.90209 7.67835L6.32059 8.26013L5.93264 7.87219C5.71879 7.65806 5.37115 7.65806 5.1573 7.87219C4.94317 8.08631 4.94317 8.43341 5.1573 8.64753L5.54524 9.03548C5.33112 9.2496 5.33112 9.5967 5.54524 9.81082C5.65244 9.91802 5.79254 9.97148 5.93291 9.97148C6.07329 9.97148 6.21366 9.91802 6.32059 9.81082L6.70826 10.1985C6.81518 10.3057 6.95556 10.3592 7.09593 10.3592C7.2363 10.3592 7.37668 10.3057 7.4836 10.1985C7.69772 9.98437 7.69772 9.63727 7.4836 9.42315L7.09593 9.03548L7.67744 8.4537L8.06538 8.84137Z" fill="black"/>
<path d="M15.9175 15.4885C16.5889 14.7176 16.9991 13.7136 16.9991 12.6133C16.9991 11.5243 16.598 10.5291 15.9386 9.76145C15.9156 9.7302 15.8898 9.70168 15.8613 9.67646C15.5211 9.3003 15.1194 8.98145 14.6684 8.741C15.0155 7.83927 15.2335 6.89422 15.3171 5.92422C15.3171 5.92367 15.3171 5.92312 15.3174 5.92257C15.3179 5.91572 15.319 5.90914 15.3195 5.90256C15.4322 4.56271 15.2883 3.22971 14.8913 1.9403C14.6739 1.23377 14.1225 0.682151 13.4163 0.465285C12.1263 0.0682921 10.7933 -0.0753712 9.4543 0.0370371C9.44937 0.0373113 9.44471 0.0381338 9.44005 0.0386821C9.43621 0.0392305 9.43237 0.0395047 9.42853 0.0397788C7.01641 0.24842 4.74302 1.30807 3.0251 3.026C1.25014 4.80041 0.183907 7.15193 0.0232455 9.64658C-0.0628428 10.939 0.0904163 12.224 0.479185 13.4665C0.68947 14.1391 1.21642 14.666 1.88895 14.8769C2.90775 15.1957 3.95562 15.3561 5.01226 15.3561C5.24393 15.3561 5.47615 15.3487 5.70836 15.3331C6.75404 15.2653 7.77147 15.0422 8.7401 14.6696C8.9109 14.9898 9.12229 15.284 9.36383 15.5508C9.37178 15.5614 9.38165 15.5699 9.39042 15.5801C10.1926 16.4506 11.3381 17 12.6124 17C13.9147 17 15.0827 16.4264 15.8868 15.5222C15.8975 15.5113 15.9076 15.5006 15.9175 15.4885ZM14.5316 12.6133C14.5316 11.8805 14.8502 11.2178 15.3634 10.814C15.7031 11.3316 15.9024 11.9493 15.9024 12.6133C15.9024 13.2774 15.7031 13.8951 15.3634 14.4127C14.8502 14.0088 14.5316 13.3462 14.5316 12.6133ZM13.0936 1.51315C13.4522 1.62309 13.7324 1.90356 13.8426 2.26217C14.1491 3.25822 14.2862 4.28278 14.2539 5.31529C13.2112 5.26512 12.1579 4.79191 11.3609 3.99518C10.5639 3.1979 10.0898 2.14428 10.0405 1.1019C11.0722 1.069 12.0973 1.20636 13.0936 1.51315ZM2.21658 13.8298C1.88703 13.7267 1.62877 13.4687 1.52568 13.1389C1.23068 12.1963 1.08893 11.2261 1.0988 10.2475C2.08141 10.3383 3.04511 10.8008 3.79989 11.5556C4.55495 12.3107 5.01363 13.2733 5.10657 14.2567C4.12862 14.266 3.15889 14.1248 2.21658 13.8298ZM6.20104 14.1827C6.09028 12.9366 5.51864 11.7231 4.57551 10.78C3.63292 9.8374 2.41919 9.26686 1.17365 9.15527C1.42945 7.13686 2.34845 5.25278 3.80016 3.8008C5.19814 2.40282 7.00737 1.49451 8.94627 1.20197C9.01618 2.50618 9.5933 3.77831 10.5855 4.77052C11.5769 5.76218 12.8482 6.3341 14.1519 6.40428C14.0524 7.0727 13.878 7.72385 13.6356 8.35224C13.3069 8.273 12.9653 8.22667 12.6124 8.22667C11.3573 8.22667 10.2269 8.75937 9.42661 9.6071C9.40742 9.62547 9.3896 9.64493 9.37287 9.66604C8.66278 10.4458 8.22576 11.4783 8.22576 12.6133C8.22576 12.9687 8.27292 13.3125 8.35298 13.6434C7.66098 13.9101 6.9402 14.0894 6.20104 14.1827ZM9.95329 14.5426C9.55821 13.9998 9.32243 13.3344 9.32243 12.6133C9.32243 11.8923 9.55821 11.2269 9.95329 10.684C10.5704 11.0602 10.9674 11.79 10.9674 12.6133C10.9674 13.4367 10.5704 14.1665 9.95329 14.5426ZM10.7536 15.3254C11.5596 14.7239 12.0641 13.7212 12.0641 12.6133C12.0641 11.5054 11.5596 10.5028 10.7536 9.90128C11.283 9.53746 11.9229 9.32333 12.6124 9.32333C13.3653 9.32333 14.0576 9.58023 14.6127 10.0071C13.8813 10.6201 13.4349 11.5751 13.4349 12.6133C13.4349 13.6516 13.8813 14.6065 14.6127 15.2196C14.0576 15.6464 13.3653 15.9033 12.6124 15.9033C11.9229 15.9033 11.283 15.6892 10.7536 15.3254Z" fill="black"/>
</svg>
