<svg width="528" height="524" viewBox="0 0 528 524" fill="none" xmlns="http://www.w3.org/2000/svg">
<mask id="path-1-outside-1_785_33" maskUnits="userSpaceOnUse" x="0.00244141" y="0.495972" width="528" height="524" fill="black">
<rect fill="white" x="0.00244141" y="0.495972" width="528" height="524"/>
<path d="M16.3782 96.336C2.77092 109.904 5.67874 129.008 16.5067 139.776C16.9405 140.192 60.4292 181.568 121.59 242.48C122.334 243.229 123.219 243.823 124.196 244.229C125.172 244.635 126.219 244.844 127.277 244.844C128.335 244.844 129.382 244.635 130.358 244.229C131.334 243.823 132.22 243.229 132.964 242.48C134.47 240.98 135.316 238.945 135.316 236.824C135.316 234.703 134.47 232.668 132.964 231.168C123.742 221.984 114.971 213.296 106.649 205.072L132.177 179.648C133.64 178.139 134.449 176.118 134.431 174.021C134.413 171.923 133.568 169.917 132.079 168.433C130.589 166.95 128.575 166.109 126.469 166.091C124.363 166.072 122.333 166.879 120.818 168.336L95.2265 193.824C82.8691 181.672 70.472 169.56 58.0354 157.488L116.111 99.648C117.575 98.1392 118.384 96.1183 118.366 94.0208C118.348 91.9232 117.503 89.9167 116.014 88.4334C114.524 86.9502 112.51 86.1088 110.403 86.0906C108.297 86.0723 106.268 86.8787 104.753 88.336L46.5006 146.352C34.6765 134.944 27.8649 128.464 27.7524 128.352C24.3626 124.976 19.9126 115.472 27.7524 107.664L108.079 27.664C111.179 24.528 119.437 18.304 128.498 27.28C128.899 27.728 169.464 73.616 231.38 135.28C232.895 136.737 234.924 137.544 237.03 137.525C239.136 137.507 241.151 136.666 242.64 135.183C244.129 133.699 244.974 131.693 244.992 129.595C245.011 127.498 244.201 125.477 242.738 123.968C181.208 62.704 140.948 17.168 140.209 16.336C125.236 1.45597 107.179 5.91997 96.7206 16.336L16.3782 96.336ZM357.09 392.336C355.584 390.836 353.541 389.994 351.411 389.994C349.281 389.994 347.239 390.836 345.732 392.336L320.172 417.776C312.005 409.532 303.811 401.313 295.593 393.12C294.078 391.663 292.048 390.856 289.942 390.875C287.836 390.893 285.822 391.734 284.332 393.217C282.843 394.701 281.998 396.707 281.98 398.805C281.962 400.902 282.771 402.923 284.234 404.432C318.655 438.626 352.546 473.345 385.895 508.576C391.406 514.08 398.956 517.104 407.15 517.104C415.584 517.104 424.115 513.824 429.4 508.544L509.694 427.632C519.799 417.568 520.378 400.496 510.947 391.072L403.214 283.792C401.699 282.335 399.67 281.528 397.564 281.547C395.457 281.565 393.443 282.406 391.953 283.889C390.464 285.373 389.619 287.379 389.601 289.477C389.583 291.574 390.392 293.595 391.856 295.104L499.589 402.384C502.802 405.584 502.192 412.496 498.32 416.352L418.01 497.264C416.162 499.12 411.969 501.104 407.15 501.104C404.386 501.104 400.434 500.432 397.446 497.44C397.286 497.264 390.554 490.112 378.875 477.936L437.417 419.632C438.88 418.123 439.69 416.102 439.671 414.005C439.653 411.907 438.808 409.901 437.319 408.417C435.83 406.934 433.815 406.093 431.709 406.075C429.603 406.056 427.574 406.863 426.059 408.32L367.758 466.384C355.717 453.919 343.614 441.514 331.45 429.168L357.09 403.632C358.591 402.132 359.434 400.101 359.434 397.984C359.434 395.867 358.591 393.836 357.09 392.336ZM8.28131 515.264C9.30639 516.306 10.5981 517.05 12.0168 517.413C13.4354 517.777 14.927 517.748 16.33 517.328L176.983 469.664C178.274 469.288 179.446 468.588 180.388 467.632L454.944 192.352C455.329 191.968 455.522 191.472 455.811 191.04L514.546 132.544C516.881 130.236 518.734 127.49 519.999 124.465C521.263 121.441 521.914 118.196 521.914 114.92C521.914 111.643 521.263 108.399 519.999 105.375C518.734 102.35 516.881 99.6042 514.546 97.296L430.444 13.552C420.998 4.14397 404.499 4.14397 395.053 13.552L334.985 73.376C334.599 73.76 334.39 74.256 334.101 74.704L59.1279 348.576C58.229 349.467 57.557 350.558 57.1679 351.76L6.40167 507.2C5.94496 508.587 5.8787 510.072 6.21009 511.494C6.54148 512.915 7.25785 514.219 8.28131 515.264ZM341.121 90.336L357.813 106.96L108.432 356L80.6875 349.728L341.121 90.336ZM118.457 368.656L369.188 118.288L408.322 157.264L155.327 406H118.457V368.656ZM437.899 186.736L176.934 448.4L167.665 416.368L419.681 168.576L437.899 186.736ZM70.1487 363.744L102.392 371.04V414C102.392 416.122 103.238 418.157 104.744 419.657C106.251 421.157 108.294 422 110.424 422H152.58L162.765 457.2L26.4029 497.664L70.1487 363.744ZM406.427 24.864C408.132 23.2358 410.402 22.3268 412.765 22.3268C415.127 22.3268 417.397 23.2358 419.102 24.864L503.204 108.624C504.043 109.45 504.708 110.433 505.162 111.517C505.616 112.602 505.849 113.765 505.847 114.939C505.846 116.114 505.61 117.276 505.154 118.36C504.697 119.443 504.029 120.424 503.188 121.248L449.032 175.2L352.271 78.832L406.427 24.864Z"/>
</mask>
<path d="M16.3782 96.336C2.77092 109.904 5.67874 129.008 16.5067 139.776C16.9405 140.192 60.4292 181.568 121.59 242.48C122.334 243.229 123.219 243.823 124.196 244.229C125.172 244.635 126.219 244.844 127.277 244.844C128.335 244.844 129.382 244.635 130.358 244.229C131.334 243.823 132.22 243.229 132.964 242.48C134.47 240.98 135.316 238.945 135.316 236.824C135.316 234.703 134.47 232.668 132.964 231.168C123.742 221.984 114.971 213.296 106.649 205.072L132.177 179.648C133.64 178.139 134.449 176.118 134.431 174.021C134.413 171.923 133.568 169.917 132.079 168.433C130.589 166.95 128.575 166.109 126.469 166.091C124.363 166.072 122.333 166.879 120.818 168.336L95.2265 193.824C82.8691 181.672 70.472 169.56 58.0354 157.488L116.111 99.648C117.575 98.1392 118.384 96.1183 118.366 94.0208C118.348 91.9232 117.503 89.9167 116.014 88.4334C114.524 86.9502 112.51 86.1088 110.403 86.0906C108.297 86.0723 106.268 86.8787 104.753 88.336L46.5006 146.352C34.6765 134.944 27.8649 128.464 27.7524 128.352C24.3626 124.976 19.9126 115.472 27.7524 107.664L108.079 27.664C111.179 24.528 119.437 18.304 128.498 27.28C128.899 27.728 169.464 73.616 231.38 135.28C232.895 136.737 234.924 137.544 237.03 137.525C239.136 137.507 241.151 136.666 242.64 135.183C244.129 133.699 244.974 131.693 244.992 129.595C245.011 127.498 244.201 125.477 242.738 123.968C181.208 62.704 140.948 17.168 140.209 16.336C125.236 1.45597 107.179 5.91997 96.7206 16.336L16.3782 96.336ZM357.09 392.336C355.584 390.836 353.541 389.994 351.411 389.994C349.281 389.994 347.239 390.836 345.732 392.336L320.172 417.776C312.005 409.532 303.811 401.313 295.593 393.12C294.078 391.663 292.048 390.856 289.942 390.875C287.836 390.893 285.822 391.734 284.332 393.217C282.843 394.701 281.998 396.707 281.98 398.805C281.962 400.902 282.771 402.923 284.234 404.432C318.655 438.626 352.546 473.345 385.895 508.576C391.406 514.08 398.956 517.104 407.15 517.104C415.584 517.104 424.115 513.824 429.4 508.544L509.694 427.632C519.799 417.568 520.378 400.496 510.947 391.072L403.214 283.792C401.699 282.335 399.67 281.528 397.564 281.547C395.457 281.565 393.443 282.406 391.953 283.889C390.464 285.373 389.619 287.379 389.601 289.477C389.583 291.574 390.392 293.595 391.856 295.104L499.589 402.384C502.802 405.584 502.192 412.496 498.32 416.352L418.01 497.264C416.162 499.12 411.969 501.104 407.15 501.104C404.386 501.104 400.434 500.432 397.446 497.44C397.286 497.264 390.554 490.112 378.875 477.936L437.417 419.632C438.88 418.123 439.69 416.102 439.671 414.005C439.653 411.907 438.808 409.901 437.319 408.417C435.83 406.934 433.815 406.093 431.709 406.075C429.603 406.056 427.574 406.863 426.059 408.32L367.758 466.384C355.717 453.919 343.614 441.514 331.45 429.168L357.09 403.632C358.591 402.132 359.434 400.101 359.434 397.984C359.434 395.867 358.591 393.836 357.09 392.336ZM8.28131 515.264C9.30639 516.306 10.5981 517.05 12.0168 517.413C13.4354 517.777 14.927 517.748 16.33 517.328L176.983 469.664C178.274 469.288 179.446 468.588 180.388 467.632L454.944 192.352C455.329 191.968 455.522 191.472 455.811 191.04L514.546 132.544C516.881 130.236 518.734 127.49 519.999 124.465C521.263 121.441 521.914 118.196 521.914 114.92C521.914 111.643 521.263 108.399 519.999 105.375C518.734 102.35 516.881 99.6042 514.546 97.296L430.444 13.552C420.998 4.14397 404.499 4.14397 395.053 13.552L334.985 73.376C334.599 73.76 334.39 74.256 334.101 74.704L59.1279 348.576C58.229 349.467 57.557 350.558 57.1679 351.76L6.40167 507.2C5.94496 508.587 5.8787 510.072 6.21009 511.494C6.54148 512.915 7.25785 514.219 8.28131 515.264ZM341.121 90.336L357.813 106.96L108.432 356L80.6875 349.728L341.121 90.336ZM118.457 368.656L369.188 118.288L408.322 157.264L155.327 406H118.457V368.656ZM437.899 186.736L176.934 448.4L167.665 416.368L419.681 168.576L437.899 186.736ZM70.1487 363.744L102.392 371.04V414C102.392 416.122 103.238 418.157 104.744 419.657C106.251 421.157 108.294 422 110.424 422H152.58L162.765 457.2L26.4029 497.664L70.1487 363.744ZM406.427 24.864C408.132 23.2358 410.402 22.3268 412.765 22.3268C415.127 22.3268 417.397 23.2358 419.102 24.864L503.204 108.624C504.043 109.45 504.708 110.433 505.162 111.517C505.616 112.602 505.849 113.765 505.847 114.939C505.846 116.114 505.61 117.276 505.154 118.36C504.697 119.443 504.029 120.424 503.188 121.248L449.032 175.2L352.271 78.832L406.427 24.864Z" fill="black"/>
<path d="M16.3782 96.336C2.77092 109.904 5.67874 129.008 16.5067 139.776C16.9405 140.192 60.4292 181.568 121.59 242.48C122.334 243.229 123.219 243.823 124.196 244.229C125.172 244.635 126.219 244.844 127.277 244.844C128.335 244.844 129.382 244.635 130.358 244.229C131.334 243.823 132.22 243.229 132.964 242.48C134.47 240.98 135.316 238.945 135.316 236.824C135.316 234.703 134.47 232.668 132.964 231.168C123.742 221.984 114.971 213.296 106.649 205.072L132.177 179.648C133.64 178.139 134.449 176.118 134.431 174.021C134.413 171.923 133.568 169.917 132.079 168.433C130.589 166.95 128.575 166.109 126.469 166.091C124.363 166.072 122.333 166.879 120.818 168.336L95.2265 193.824C82.8691 181.672 70.472 169.56 58.0354 157.488L116.111 99.648C117.575 98.1392 118.384 96.1183 118.366 94.0208C118.348 91.9232 117.503 89.9167 116.014 88.4334C114.524 86.9502 112.51 86.1088 110.403 86.0906C108.297 86.0723 106.268 86.8787 104.753 88.336L46.5006 146.352C34.6765 134.944 27.8649 128.464 27.7524 128.352C24.3626 124.976 19.9126 115.472 27.7524 107.664L108.079 27.664C111.179 24.528 119.437 18.304 128.498 27.28C128.899 27.728 169.464 73.616 231.38 135.28C232.895 136.737 234.924 137.544 237.03 137.525C239.136 137.507 241.151 136.666 242.64 135.183C244.129 133.699 244.974 131.693 244.992 129.595C245.011 127.498 244.201 125.477 242.738 123.968C181.208 62.704 140.948 17.168 140.209 16.336C125.236 1.45597 107.179 5.91997 96.7206 16.336L16.3782 96.336ZM357.09 392.336C355.584 390.836 353.541 389.994 351.411 389.994C349.281 389.994 347.239 390.836 345.732 392.336L320.172 417.776C312.005 409.532 303.811 401.313 295.593 393.12C294.078 391.663 292.048 390.856 289.942 390.875C287.836 390.893 285.822 391.734 284.332 393.217C282.843 394.701 281.998 396.707 281.98 398.805C281.962 400.902 282.771 402.923 284.234 404.432C318.655 438.626 352.546 473.345 385.895 508.576C391.406 514.08 398.956 517.104 407.15 517.104C415.584 517.104 424.115 513.824 429.4 508.544L509.694 427.632C519.799 417.568 520.378 400.496 510.947 391.072L403.214 283.792C401.699 282.335 399.67 281.528 397.564 281.547C395.457 281.565 393.443 282.406 391.953 283.889C390.464 285.373 389.619 287.379 389.601 289.477C389.583 291.574 390.392 293.595 391.856 295.104L499.589 402.384C502.802 405.584 502.192 412.496 498.32 416.352L418.01 497.264C416.162 499.12 411.969 501.104 407.15 501.104C404.386 501.104 400.434 500.432 397.446 497.44C397.286 497.264 390.554 490.112 378.875 477.936L437.417 419.632C438.88 418.123 439.69 416.102 439.671 414.005C439.653 411.907 438.808 409.901 437.319 408.417C435.83 406.934 433.815 406.093 431.709 406.075C429.603 406.056 427.574 406.863 426.059 408.32L367.758 466.384C355.717 453.919 343.614 441.514 331.45 429.168L357.09 403.632C358.591 402.132 359.434 400.101 359.434 397.984C359.434 395.867 358.591 393.836 357.09 392.336ZM8.28131 515.264C9.30639 516.306 10.5981 517.05 12.0168 517.413C13.4354 517.777 14.927 517.748 16.33 517.328L176.983 469.664C178.274 469.288 179.446 468.588 180.388 467.632L454.944 192.352C455.329 191.968 455.522 191.472 455.811 191.04L514.546 132.544C516.881 130.236 518.734 127.49 519.999 124.465C521.263 121.441 521.914 118.196 521.914 114.92C521.914 111.643 521.263 108.399 519.999 105.375C518.734 102.35 516.881 99.6042 514.546 97.296L430.444 13.552C420.998 4.14397 404.499 4.14397 395.053 13.552L334.985 73.376C334.599 73.76 334.39 74.256 334.101 74.704L59.1279 348.576C58.229 349.467 57.557 350.558 57.1679 351.76L6.40167 507.2C5.94496 508.587 5.8787 510.072 6.21009 511.494C6.54148 512.915 7.25785 514.219 8.28131 515.264ZM341.121 90.336L357.813 106.96L108.432 356L80.6875 349.728L341.121 90.336ZM118.457 368.656L369.188 118.288L408.322 157.264L155.327 406H118.457V368.656ZM437.899 186.736L176.934 448.4L167.665 416.368L419.681 168.576L437.899 186.736ZM70.1487 363.744L102.392 371.04V414C102.392 416.122 103.238 418.157 104.744 419.657C106.251 421.157 108.294 422 110.424 422H152.58L162.765 457.2L26.4029 497.664L70.1487 363.744ZM406.427 24.864C408.132 23.2358 410.402 22.3268 412.765 22.3268C415.127 22.3268 417.397 23.2358 419.102 24.864L503.204 108.624C504.043 109.45 504.708 110.433 505.162 111.517C505.616 112.602 505.849 113.765 505.847 114.939C505.846 116.114 505.61 117.276 505.154 118.36C504.697 119.443 504.029 120.424 503.188 121.248L449.032 175.2L352.271 78.832L406.427 24.864Z" stroke="black" stroke-width="12" mask="url(#path-1-outside-1_785_33)"/>
</svg>
