<svg width="368" height="495" viewBox="0 0 368 495" fill="none" xmlns="http://www.w3.org/2000/svg">
<mask id="path-1-outside-1_785_14" maskUnits="userSpaceOnUse" x="-0.518555" y="0.671326" width="369" height="495" fill="black">
<rect fill="white" x="-0.518555" y="0.671326" width="369" height="495"/>
<path d="M152 104V96C152 93.8783 152.843 91.8434 154.343 90.3431C155.843 88.8428 157.878 88 160 88C162.122 88 164.157 88.8428 165.657 90.3431C167.157 91.8434 168 93.8783 168 96V104C168 106.122 167.157 108.157 165.657 109.657C164.157 111.157 162.122 112 160 112C157.878 112 155.843 111.157 154.343 109.657C152.843 108.157 152 106.122 152 104ZM208 112C210.122 112 212.157 111.157 213.657 109.657C215.157 108.157 216 106.122 216 104V96C216 93.8783 215.157 91.8434 213.657 90.3431C212.157 88.8428 210.122 88 208 88C205.878 88 203.843 88.8428 202.343 90.3431C200.843 91.8434 200 93.8783 200 96V104C200 106.122 200.843 108.157 202.343 109.657C203.843 111.157 205.878 112 208 112ZM360 328.8C357.502 349.928 349.195 369.95 336 386.64V416C335.926 433.692 329.342 450.737 317.502 463.883C305.663 477.03 289.398 485.357 271.81 487.276C254.223 489.195 236.545 484.571 222.149 474.287C186.5 440 195.887 409.259 192 392C188.72 392 187.28 392.56 184 392.56C180.72 392.56 179.28 392.48 176 392C172.113 409.259 178.45 451 145.851 474.287C131.455 484.571 113.777 489.195 96.1897 487.276C78.6023 485.357 62.3371 477.03 50.4977 463.883C38.6583 450.737 32.0736 433.692 32 416V386.64C18.8055 369.95 10.4976 349.928 8.00001 328.8C2.08001 269.52 47.28 208.8 121.44 173.76C105.173 157.317 96.0339 135.13 96 112C96.038 108.416 96.2784 104.837 96.72 101.28C87.1835 98.1545 78.8814 92.09 73.0036 83.9559C67.1257 75.8217 63.9739 66.0356 64 56C64.1131 45.7339 67.5148 35.7745 73.7057 27.5843C79.8967 19.3942 88.5505 13.4048 98.3965 10.4958C108.242 7.58671 118.762 7.91127 128.41 11.4218C138.058 14.9323 146.326 21.4437 152 30C172.417 21.9982 195.103 21.9982 215.52 30C219.638 23.4946 225.26 18.075 231.912 14.1988C238.564 10.3225 246.051 8.10328 253.741 7.7283C261.431 7.35332 269.098 8.83362 276.095 12.0443C283.093 15.2549 289.216 20.1018 293.947 26.1757C298.678 32.2497 301.878 39.3725 303.278 46.9432C304.678 54.5139 304.236 62.3103 301.99 69.6744C299.744 77.0386 295.76 83.7544 290.373 89.2551C284.986 94.7559 278.356 98.8802 271.04 101.28C271.562 104.832 271.882 108.411 272 112C271.966 135.13 262.827 157.317 246.56 173.76C320.72 208.48 365.92 269.52 360 328.8ZM230.16 37.2C248.045 48.2113 261.429 65.2255 267.92 85.2C272.614 83.4174 276.823 80.555 280.207 76.8443C283.59 73.1336 286.052 68.6788 287.395 63.8401C288.738 59.0014 288.923 53.9147 287.935 48.9912C286.948 44.0678 284.815 39.4459 281.711 35.4992C278.606 31.5525 274.616 28.3919 270.063 26.2729C265.511 24.154 260.524 23.1361 255.505 23.3017C250.486 23.4673 245.577 24.8116 241.174 27.2261C236.771 29.6405 232.998 33.0573 230.16 37.2ZM100.08 85.2C106.571 65.2255 119.955 48.2113 137.84 37.2C135.002 33.0573 131.229 29.6405 126.826 27.2261C122.423 24.8116 117.514 23.4673 112.495 23.3017C107.476 23.1361 102.489 24.154 97.9367 26.2729C93.3841 28.3919 89.3942 31.5525 86.2895 35.4992C83.1848 39.4459 81.0525 44.0678 80.0649 48.9912C79.0774 53.9147 79.2624 59.0014 80.605 63.8401C81.9476 68.6788 84.4101 73.1336 87.7933 76.8443C91.1766 80.555 95.3856 83.4174 100.08 85.2ZM112 112C112.008 129.704 118.54 146.785 130.346 159.979C142.152 173.172 158.405 181.553 176 183.52V157.76C172.95 155.999 170.566 153.281 169.218 150.027C167.87 146.772 167.634 143.165 168.545 139.762C169.457 136.36 171.466 133.354 174.26 131.21C177.054 129.066 180.478 127.904 184 127.904C187.522 127.904 190.946 129.066 193.74 131.21C196.535 133.354 198.543 136.36 199.455 139.762C200.366 143.165 200.13 146.772 198.782 150.027C197.434 153.281 195.05 155.999 192 157.76V183.52C205.814 181.976 218.886 176.465 229.638 167.654C240.389 158.843 248.36 147.108 252.588 133.867C256.817 120.625 257.121 106.442 253.466 93.0308C249.81 79.6196 242.35 67.5533 231.987 58.2888C221.624 49.0242 208.801 42.9576 195.066 40.8212C181.33 38.6849 167.27 40.5702 154.583 46.2496C141.895 51.929 131.123 61.1595 123.567 72.8269C116.011 84.4942 111.993 98.0995 112 112ZM160 376C160 361.148 154.1 346.904 143.598 336.402C133.096 325.9 118.852 320 104 320C89.1479 320 74.9041 325.9 64.402 336.402C53.9 346.904 48 361.148 48 376V416C48 430.852 53.9 445.096 64.402 455.598C74.9041 466.1 89.1479 472 104 472C118.852 472 133.096 466.1 143.598 455.598C154.1 445.096 160 430.852 160 416V376ZM192 392C186.693 392.746 181.307 392.746 176 392C181.326 392.4 186.674 392.4 192 392ZM320 376C320 361.148 314.1 346.904 303.598 336.402C293.096 325.9 278.852 320 264 320C249.148 320 234.904 325.9 224.402 336.402C213.9 346.904 208 361.148 208 376V416C208 430.852 213.9 445.096 224.402 455.598C234.904 466.1 249.148 472 264 472C278.852 472 293.096 466.1 303.598 455.598C314.1 445.096 320 430.852 320 416V376ZM232.88 185.12C218.411 194.785 201.401 199.944 184 199.944C166.599 199.944 149.589 194.785 135.12 185.12C64 216 18.56 273.84 24 327.2C25.1458 338.674 28.5152 349.814 33.92 360C36.3464 349.691 41.0172 340.044 47.5994 331.747C54.1816 323.45 62.5131 316.708 72 312V274.64C72.0208 264.871 73.2569 255.143 75.68 245.68C76.2246 243.635 77.5575 241.889 79.3868 240.824C81.2161 239.759 83.3927 239.463 85.44 240C86.46 240.261 87.4184 240.721 88.2604 241.353C89.1023 241.985 89.8111 242.777 90.3462 243.684C90.8814 244.591 91.2322 245.594 91.3787 246.637C91.5252 247.68 91.4645 248.741 91.2 249.76C89.0552 257.879 87.9794 266.243 88 274.64V305.84C93.2449 304.614 98.6137 303.996 104 304C122.958 303.999 141.151 311.475 154.631 324.805C168.111 338.135 175.789 373.043 176 392C181.29 392.96 186.71 392.96 192 392C192.211 373.043 199.889 338.135 213.369 324.805C226.849 311.475 245.042 303.999 264 304C269.386 303.996 274.755 304.614 280 305.84V274.64C280.007 266.328 278.959 258.048 276.88 250C276.35 247.942 276.658 245.757 277.739 243.927C278.819 242.097 280.582 240.77 282.64 240.24C284.698 239.71 286.883 240.018 288.713 241.099C290.543 242.179 291.87 243.942 292.4 246C294.801 255.357 296.011 264.98 296 274.64V312C305.487 316.708 313.818 323.45 320.401 331.747C326.983 340.044 331.654 349.691 334.08 360C339.485 349.814 342.854 338.674 344 327.2C349.44 273.84 304 216 232.88 185.12Z"/>
</mask>
<path d="M152 104V96C152 93.8783 152.843 91.8434 154.343 90.3431C155.843 88.8428 157.878 88 160 88C162.122 88 164.157 88.8428 165.657 90.3431C167.157 91.8434 168 93.8783 168 96V104C168 106.122 167.157 108.157 165.657 109.657C164.157 111.157 162.122 112 160 112C157.878 112 155.843 111.157 154.343 109.657C152.843 108.157 152 106.122 152 104ZM208 112C210.122 112 212.157 111.157 213.657 109.657C215.157 108.157 216 106.122 216 104V96C216 93.8783 215.157 91.8434 213.657 90.3431C212.157 88.8428 210.122 88 208 88C205.878 88 203.843 88.8428 202.343 90.3431C200.843 91.8434 200 93.8783 200 96V104C200 106.122 200.843 108.157 202.343 109.657C203.843 111.157 205.878 112 208 112ZM360 328.8C357.502 349.928 349.195 369.95 336 386.64V416C335.926 433.692 329.342 450.737 317.502 463.883C305.663 477.03 289.398 485.357 271.81 487.276C254.223 489.195 236.545 484.571 222.149 474.287C186.5 440 195.887 409.259 192 392C188.72 392 187.28 392.56 184 392.56C180.72 392.56 179.28 392.48 176 392C172.113 409.259 178.45 451 145.851 474.287C131.455 484.571 113.777 489.195 96.1897 487.276C78.6023 485.357 62.3371 477.03 50.4977 463.883C38.6583 450.737 32.0736 433.692 32 416V386.64C18.8055 369.95 10.4976 349.928 8.00001 328.8C2.08001 269.52 47.28 208.8 121.44 173.76C105.173 157.317 96.0339 135.13 96 112C96.038 108.416 96.2784 104.837 96.72 101.28C87.1835 98.1545 78.8814 92.09 73.0036 83.9559C67.1257 75.8217 63.9739 66.0356 64 56C64.1131 45.7339 67.5148 35.7745 73.7057 27.5843C79.8967 19.3942 88.5505 13.4048 98.3965 10.4958C108.242 7.58671 118.762 7.91127 128.41 11.4218C138.058 14.9323 146.326 21.4437 152 30C172.417 21.9982 195.103 21.9982 215.52 30C219.638 23.4946 225.26 18.075 231.912 14.1988C238.564 10.3225 246.051 8.10328 253.741 7.7283C261.431 7.35332 269.098 8.83362 276.095 12.0443C283.093 15.2549 289.216 20.1018 293.947 26.1757C298.678 32.2497 301.878 39.3725 303.278 46.9432C304.678 54.5139 304.236 62.3103 301.99 69.6744C299.744 77.0386 295.76 83.7544 290.373 89.2551C284.986 94.7559 278.356 98.8802 271.04 101.28C271.562 104.832 271.882 108.411 272 112C271.966 135.13 262.827 157.317 246.56 173.76C320.72 208.48 365.92 269.52 360 328.8ZM230.16 37.2C248.045 48.2113 261.429 65.2255 267.92 85.2C272.614 83.4174 276.823 80.555 280.207 76.8443C283.59 73.1336 286.052 68.6788 287.395 63.8401C288.738 59.0014 288.923 53.9147 287.935 48.9912C286.948 44.0678 284.815 39.4459 281.711 35.4992C278.606 31.5525 274.616 28.3919 270.063 26.2729C265.511 24.154 260.524 23.1361 255.505 23.3017C250.486 23.4673 245.577 24.8116 241.174 27.2261C236.771 29.6405 232.998 33.0573 230.16 37.2ZM100.08 85.2C106.571 65.2255 119.955 48.2113 137.84 37.2C135.002 33.0573 131.229 29.6405 126.826 27.2261C122.423 24.8116 117.514 23.4673 112.495 23.3017C107.476 23.1361 102.489 24.154 97.9367 26.2729C93.3841 28.3919 89.3942 31.5525 86.2895 35.4992C83.1848 39.4459 81.0525 44.0678 80.0649 48.9912C79.0774 53.9147 79.2624 59.0014 80.605 63.8401C81.9476 68.6788 84.4101 73.1336 87.7933 76.8443C91.1766 80.555 95.3856 83.4174 100.08 85.2ZM112 112C112.008 129.704 118.54 146.785 130.346 159.979C142.152 173.172 158.405 181.553 176 183.52V157.76C172.95 155.999 170.566 153.281 169.218 150.027C167.87 146.772 167.634 143.165 168.545 139.762C169.457 136.36 171.466 133.354 174.26 131.21C177.054 129.066 180.478 127.904 184 127.904C187.522 127.904 190.946 129.066 193.74 131.21C196.535 133.354 198.543 136.36 199.455 139.762C200.366 143.165 200.13 146.772 198.782 150.027C197.434 153.281 195.05 155.999 192 157.76V183.52C205.814 181.976 218.886 176.465 229.638 167.654C240.389 158.843 248.36 147.108 252.588 133.867C256.817 120.625 257.121 106.442 253.466 93.0308C249.81 79.6196 242.35 67.5533 231.987 58.2888C221.624 49.0242 208.801 42.9576 195.066 40.8212C181.33 38.6849 167.27 40.5702 154.583 46.2496C141.895 51.929 131.123 61.1595 123.567 72.8269C116.011 84.4942 111.993 98.0995 112 112ZM160 376C160 361.148 154.1 346.904 143.598 336.402C133.096 325.9 118.852 320 104 320C89.1479 320 74.9041 325.9 64.402 336.402C53.9 346.904 48 361.148 48 376V416C48 430.852 53.9 445.096 64.402 455.598C74.9041 466.1 89.1479 472 104 472C118.852 472 133.096 466.1 143.598 455.598C154.1 445.096 160 430.852 160 416V376ZM192 392C186.693 392.746 181.307 392.746 176 392C181.326 392.4 186.674 392.4 192 392ZM320 376C320 361.148 314.1 346.904 303.598 336.402C293.096 325.9 278.852 320 264 320C249.148 320 234.904 325.9 224.402 336.402C213.9 346.904 208 361.148 208 376V416C208 430.852 213.9 445.096 224.402 455.598C234.904 466.1 249.148 472 264 472C278.852 472 293.096 466.1 303.598 455.598C314.1 445.096 320 430.852 320 416V376ZM232.88 185.12C218.411 194.785 201.401 199.944 184 199.944C166.599 199.944 149.589 194.785 135.12 185.12C64 216 18.56 273.84 24 327.2C25.1458 338.674 28.5152 349.814 33.92 360C36.3464 349.691 41.0172 340.044 47.5994 331.747C54.1816 323.45 62.5131 316.708 72 312V274.64C72.0208 264.871 73.2569 255.143 75.68 245.68C76.2246 243.635 77.5575 241.889 79.3868 240.824C81.2161 239.759 83.3927 239.463 85.44 240C86.46 240.261 87.4184 240.721 88.2604 241.353C89.1023 241.985 89.8111 242.777 90.3462 243.684C90.8814 244.591 91.2322 245.594 91.3787 246.637C91.5252 247.68 91.4645 248.741 91.2 249.76C89.0552 257.879 87.9794 266.243 88 274.64V305.84C93.2449 304.614 98.6137 303.996 104 304C122.958 303.999 141.151 311.475 154.631 324.805C168.111 338.135 175.789 373.043 176 392C181.29 392.96 186.71 392.96 192 392C192.211 373.043 199.889 338.135 213.369 324.805C226.849 311.475 245.042 303.999 264 304C269.386 303.996 274.755 304.614 280 305.84V274.64C280.007 266.328 278.959 258.048 276.88 250C276.35 247.942 276.658 245.757 277.739 243.927C278.819 242.097 280.582 240.77 282.64 240.24C284.698 239.71 286.883 240.018 288.713 241.099C290.543 242.179 291.87 243.942 292.4 246C294.801 255.357 296.011 264.98 296 274.64V312C305.487 316.708 313.818 323.45 320.401 331.747C326.983 340.044 331.654 349.691 334.08 360C339.485 349.814 342.854 338.674 344 327.2C349.44 273.84 304 216 232.88 185.12Z" fill="black"/>
<path d="M360 328.8L366.952 329.622L366.959 329.559L366.965 329.496L360 328.8ZM336 386.64L330.509 382.299L329 384.207V386.64H336ZM336 416L343 416.029L343 416.015V416H336ZM222.149 474.287L217.296 479.333L217.664 479.687L218.08 479.983L222.149 474.287ZM145.851 474.287L141.782 468.591L145.851 474.287ZM32 416H25V416.015L25.0001 416.029L32 416ZM32 386.64H39V384.207L37.4912 382.299L32 386.64ZM8.00001 328.8L1.03466 329.496L1.04096 329.559L1.04841 329.622L8.00001 328.8ZM121.44 173.76L124.43 180.089L133.369 175.865L126.416 168.837L121.44 173.76ZM96 112L89.0004 111.926L89 111.968L89 112.01L96 112ZM96.72 101.28L103.667 102.142L104.377 96.4231L98.9001 94.6281L96.72 101.28ZM64 56L57.0004 55.9229L57.0001 55.9524L57 55.9818L64 56ZM152 30L146.166 33.8687L149.291 38.5802L154.554 36.5173L152 30ZM215.52 30L212.966 36.5173L218.345 38.6255L221.435 33.7437L215.52 30ZM271.04 101.28L268.858 94.6287L263.258 96.4659L264.114 102.297L271.04 101.28ZM272 112L279 112.01L279 111.89L278.996 111.771L272 112ZM246.56 173.76L241.584 168.837L234.604 175.892L243.592 180.1L246.56 173.76ZM230.16 37.2L224.385 33.2441L220.232 39.3075L226.49 43.1608L230.16 37.2ZM267.92 85.2L261.263 87.3633L263.534 94.3532L270.405 91.7441L267.92 85.2ZM100.08 85.2L97.595 91.7441L104.466 94.3532L106.737 87.3633L100.08 85.2ZM137.84 37.2L141.51 43.1608L147.769 39.3075L143.615 33.2441L137.84 37.2ZM112 112L105 112.003L105 112.003L112 112ZM176 183.52L175.222 190.477L183 191.346V183.52H176ZM176 157.76H183V153.719L179.5 151.698L176 157.76ZM192 157.76L188.5 151.698L185 153.719V157.76H192ZM192 183.52H185V191.346L192.778 190.477L192 183.52ZM160 376L167 376V376L160 376ZM48 376L41 376V376H48ZM48 416L41 416L41 416L48 416ZM160 416L167 416V416H160ZM320 376H313H320ZM208 376H215H208ZM264 472V465V472ZM320 416H313H320ZM232.88 185.12L235.668 178.699L232.166 177.179L228.992 179.299L232.88 185.12ZM135.12 185.12L139.008 179.299L135.834 177.179L132.332 178.699L135.12 185.12ZM24 327.2L30.9654 326.504L30.9646 326.497L30.9639 326.49L24 327.2ZM33.92 360L27.7366 363.281L36.4668 379.733L40.7338 361.604L33.92 360ZM72 312L75.1116 318.27L79 316.341V312H72ZM72 274.64L65 274.625L65 274.633V274.64H72ZM75.68 245.68L68.9157 243.879L68.9071 243.911L68.8988 243.944L75.68 245.68ZM85.44 240L83.6644 246.771L83.6844 246.776L83.7045 246.781L85.44 240ZM91.2 249.76L97.9678 251.548L97.9717 251.533L97.9755 251.519L91.2 249.76ZM88 274.64H95V274.631L95 274.623L88 274.64ZM88 305.84H81V314.665L89.5935 312.656L88 305.84ZM104 304L103.995 311L104 311L104 304ZM264 304L264 311L264.005 311L264 304ZM280 305.84L278.407 312.656L287 314.665V305.84H280ZM280 274.64L273 274.634V274.64H280ZM276.88 250L270.102 251.747L270.103 251.751L276.88 250ZM292.4 246L299.18 244.26L299.179 244.253L292.4 246ZM296 274.64L289 274.632V274.64H296ZM296 312H289V316.341L292.888 318.27L296 312ZM334.08 360L327.266 361.604L331.533 379.733L340.263 363.281L334.08 360ZM344 327.2L337.036 326.49L337.035 326.497L337.035 326.504L344 327.2ZM159 104V96H145V104H159ZM159 96C159 95.7348 159.105 95.4804 159.293 95.2929L149.393 85.3934C146.58 88.2064 145 92.0218 145 96H159ZM159.293 95.2929C159.48 95.1054 159.735 95 160 95V81C156.022 81 152.206 82.5803 149.393 85.3934L159.293 95.2929ZM160 95C160.265 95 160.52 95.1054 160.707 95.2929L170.607 85.3934C167.794 82.5803 163.978 81 160 81V95ZM160.707 95.2929C160.895 95.4804 161 95.7348 161 96H175C175 92.0218 173.42 88.2064 170.607 85.3934L160.707 95.2929ZM161 96V104H175V96H161ZM161 104C161 104.265 160.895 104.52 160.707 104.707L170.607 114.607C173.42 111.794 175 107.978 175 104H161ZM160.707 104.707C160.52 104.895 160.265 105 160 105V119C163.978 119 167.794 117.42 170.607 114.607L160.707 104.707ZM160 105C159.735 105 159.48 104.895 159.293 104.707L149.393 114.607C152.206 117.42 156.022 119 160 119V105ZM159.293 104.707C159.105 104.52 159 104.265 159 104H145C145 107.978 146.58 111.794 149.393 114.607L159.293 104.707ZM208 119C211.978 119 215.794 117.42 218.607 114.607L208.707 104.707C208.52 104.895 208.265 105 208 105V119ZM218.607 114.607C221.42 111.794 223 107.978 223 104H209C209 104.265 208.895 104.52 208.707 104.707L218.607 114.607ZM223 104V96H209V104H223ZM223 96C223 92.0218 221.42 88.2064 218.607 85.3934L208.707 95.2929C208.895 95.4804 209 95.7348 209 96H223ZM218.607 85.3934C215.794 82.5803 211.978 81 208 81V95C208.265 95 208.52 95.1054 208.707 95.2929L218.607 85.3934ZM208 81C204.022 81 200.206 82.5803 197.393 85.3934L207.293 95.2929C207.48 95.1054 207.735 95 208 95V81ZM197.393 85.3934C194.58 88.2064 193 92.0218 193 96H207C207 95.7348 207.105 95.4804 207.293 95.2929L197.393 85.3934ZM193 96V104H207V96H193ZM193 104C193 107.978 194.58 111.794 197.393 114.607L207.293 104.707C207.105 104.52 207 104.265 207 104H193ZM197.393 114.607C200.206 117.42 204.022 119 208 119V105C207.735 105 207.48 104.895 207.293 104.707L197.393 114.607ZM353.048 327.978C350.703 347.821 342.9 366.625 330.509 382.299L341.491 390.981C355.489 373.276 364.302 352.036 366.952 329.622L353.048 327.978ZM329 386.64V416H343V386.64H329ZM329 415.971C328.934 431.942 322.989 447.331 312.301 459.199L322.704 468.568C335.694 454.143 342.919 435.441 343 416.029L329 415.971ZM312.301 459.199C301.612 471.067 286.929 478.585 271.051 480.317L272.57 494.234C291.867 492.129 309.713 482.992 322.704 468.568L312.301 459.199ZM271.051 480.317C255.174 482.049 239.214 477.875 226.218 468.591L218.08 479.983C233.875 491.267 253.272 496.34 272.57 494.234L271.051 480.317ZM227.001 469.242C193.353 436.879 203.5 411.203 198.829 390.462L185.171 393.538C188.274 407.316 179.647 443.121 217.296 479.333L227.001 469.242ZM192 385C189.918 385 188.389 385.185 187.176 385.329C186.029 385.465 185.198 385.56 184 385.56V399.56C186.082 399.56 187.611 399.375 188.825 399.231C189.971 399.095 190.802 399 192 399V385ZM184 385.56C181.011 385.56 179.913 385.498 177.014 385.074L174.986 398.926C178.647 399.462 180.429 399.56 184 399.56V385.56ZM169.171 390.462C168.05 395.441 167.691 401.989 167.25 408.383C166.789 415.071 166.22 422.264 164.818 429.563C162.031 444.082 156.081 458.377 141.782 468.591L149.92 479.983C168.221 466.91 175.402 448.691 178.567 432.203C180.142 423.999 180.754 416.066 181.217 409.345C181.7 402.331 182.007 397.189 182.829 393.538L169.171 390.462ZM141.782 468.591C128.786 477.875 112.827 482.049 96.949 480.317L95.4305 494.234C114.728 496.34 134.125 491.267 149.92 479.983L141.782 468.591ZM96.949 480.317C81.0715 478.585 66.3876 471.067 55.6993 459.199L45.2962 468.568C58.2866 482.992 76.1332 492.129 95.4305 494.234L96.949 480.317ZM55.6993 459.199C45.0109 447.331 39.0664 431.942 39 415.971L25.0001 416.029C25.0808 435.441 32.3057 454.143 45.2962 468.568L55.6993 459.199ZM39 416V386.64H25V416H39ZM37.4912 382.299C25.0996 366.625 17.2973 347.821 14.9516 327.978L1.04841 329.622C3.69802 352.036 12.5114 373.276 26.5088 390.981L37.4912 382.299ZM14.9654 328.104C9.46307 273.007 51.6174 214.493 124.43 180.089L118.45 167.431C42.9426 203.107 -5.30306 266.033 1.03466 329.496L14.9654 328.104ZM126.416 168.837C111.443 153.702 103.031 133.28 103 111.99L89 112.01C89.0366 136.98 98.9027 160.932 116.464 178.683L126.416 168.837ZM103 112.074C103.035 108.754 103.258 105.438 103.667 102.142L89.7734 100.418C89.2993 104.236 89.0412 108.078 89.0004 111.926L103 112.074ZM98.9001 94.6281C90.7684 91.963 83.6893 86.7919 78.6773 79.856L67.3299 88.0558C74.0735 97.3881 83.5987 104.346 94.5399 107.932L98.9001 94.6281ZM78.6773 79.856C73.6653 72.9201 70.9778 64.5754 71 56.0182L57 55.9818C56.9701 67.4957 60.5862 78.7234 67.3299 88.0558L78.6773 79.856ZM70.9996 56.0771C71.0962 47.3081 74.0018 38.8011 79.2899 31.8054L68.1216 23.3633C61.0278 32.7478 57.13 44.1596 57.0004 55.9229L70.9996 56.0771ZM79.2899 31.8054C84.578 24.8096 91.9698 19.6937 100.38 17.2089L96.4131 3.78263C85.1312 7.11591 75.2153 13.9787 68.1216 23.3633L79.2899 31.8054ZM100.38 17.2089C108.79 14.7241 117.775 15.0013 126.016 17.9999L130.803 4.8437C119.748 0.821243 107.695 0.44935 96.4131 3.78263L100.38 17.2089ZM126.016 17.9999C134.257 20.9984 141.32 26.5603 146.166 33.8687L157.834 26.1312C151.332 16.3272 141.858 8.86615 130.803 4.8437L126.016 17.9999ZM154.554 36.5173C173.33 29.1591 194.19 29.1591 212.966 36.5173L218.074 23.4826C196.015 14.8373 171.505 14.8373 149.446 23.4826L154.554 36.5173ZM221.435 33.7437C224.952 28.187 229.754 23.5578 235.436 20.2469L228.387 8.15071C220.765 12.5923 214.323 18.8021 209.605 26.2563L221.435 33.7437ZM235.436 20.2469C241.118 16.9359 247.513 15.0403 254.082 14.72L253.4 0.736604C244.588 1.16627 236.01 3.70917 228.387 8.15071L235.436 20.2469ZM254.082 14.72C260.65 14.3997 267.199 15.6641 273.176 18.4066L279.015 5.682C270.996 2.00312 262.211 0.30694 253.4 0.736604L254.082 14.72ZM273.176 18.4066C279.153 21.149 284.383 25.289 288.424 30.4772L299.469 21.8743C294.048 14.9145 287.033 9.36089 279.015 5.682L273.176 18.4066ZM288.424 30.4772C292.465 35.6653 295.199 41.7494 296.395 48.2161L310.162 45.6704C308.557 36.9956 304.89 28.834 299.469 21.8743L288.424 30.4772ZM296.395 48.2161C297.591 54.6827 297.213 61.3421 295.295 67.6323L308.686 71.7165C311.26 63.2785 311.766 54.3451 310.162 45.6704L296.395 48.2161ZM295.295 67.6323C293.376 73.9225 289.973 79.6589 285.372 84.3575L295.374 94.1528C301.547 87.8498 306.112 80.1546 308.686 71.7165L295.295 67.6323ZM285.372 84.3575C280.771 89.0561 275.107 92.5789 268.858 94.6287L273.222 107.931C281.604 105.181 289.202 100.456 295.374 94.1528L285.372 84.3575ZM264.114 102.297C264.598 105.589 264.895 108.905 265.004 112.229L278.996 111.771C278.87 107.918 278.526 104.076 277.966 100.263L264.114 102.297ZM265 111.99C264.969 133.28 256.557 153.702 241.584 168.837L251.536 178.683C269.097 160.932 278.963 136.98 279 112.01L265 111.99ZM243.592 180.1C316.366 214.171 358.538 272.995 353.035 328.104L366.965 329.496C373.302 266.045 325.074 202.789 249.528 167.42L243.592 180.1ZM226.49 43.1608C242.96 53.301 255.285 68.9691 261.263 87.3633L274.577 83.0366C267.573 61.4819 253.13 43.1217 233.83 31.2392L226.49 43.1608ZM270.405 91.7441C276.126 89.5715 281.256 86.0829 285.379 81.5605L275.034 72.128C272.391 75.027 269.103 77.2632 265.435 78.6559L270.405 91.7441ZM285.379 81.5605C289.503 77.0381 292.504 71.6088 294.14 65.7117L280.65 61.9685C279.601 65.7487 277.677 69.229 275.034 72.128L285.379 81.5605ZM294.14 65.7117C295.776 59.8145 296.002 53.6151 294.798 47.6146L281.072 50.3678C281.843 54.2143 281.699 58.1883 280.65 61.9685L294.14 65.7117ZM294.798 47.6146C293.595 41.6142 290.996 35.9812 287.212 31.1712L276.209 39.8272C278.634 42.9105 280.3 46.5214 281.072 50.3678L294.798 47.6146ZM287.212 31.1712C283.428 26.3612 278.566 22.5092 273.017 19.9267L267.11 32.6192C270.666 34.2746 273.783 36.7438 276.209 39.8272L287.212 31.1712ZM273.017 19.9267C267.469 17.3442 261.391 16.1037 255.274 16.3055L255.736 30.2979C259.657 30.1685 263.553 30.9637 267.11 32.6192L273.017 19.9267ZM255.274 16.3055C249.157 16.5073 243.174 18.1458 237.808 21.0884L244.539 33.3638C247.979 31.4775 251.815 30.4272 255.736 30.2979L255.274 16.3055ZM237.808 21.0884C232.442 24.031 227.844 28.1951 224.385 33.2441L235.935 41.1559C238.152 37.9194 241.1 35.2501 244.539 33.3638L237.808 21.0884ZM106.737 87.3633C112.715 68.9691 125.04 53.301 141.51 43.1608L134.17 31.2392C114.87 43.1217 100.427 61.4819 93.4227 83.0366L106.737 87.3633ZM143.615 33.2441C140.156 28.1951 135.558 24.0309 130.192 21.0884L123.461 33.3638C126.9 35.2501 129.848 37.9194 132.065 41.1559L143.615 33.2441ZM130.192 21.0884C124.826 18.1457 118.843 16.5073 112.726 16.3055L112.264 30.2979C116.185 30.4272 120.021 31.4775 123.461 33.3638L130.192 21.0884ZM112.726 16.3055C106.609 16.1037 100.531 17.3442 94.9828 19.9267L100.891 32.6192C104.447 30.9637 108.344 30.1685 112.264 30.2979L112.726 16.3055ZM94.9828 19.9267C89.4344 22.5092 84.5717 26.3612 80.7878 31.1712L91.7912 39.8272C94.2167 36.7438 97.3339 34.2746 100.891 32.6192L94.9828 19.9267ZM80.7878 31.1712C77.004 35.9812 74.4052 41.6142 73.2016 47.6146L86.9282 50.3678C87.6997 46.5214 89.3656 42.9105 91.7912 39.8272L80.7878 31.1712ZM73.2016 47.6146C71.9981 53.6151 72.2236 59.8145 73.8599 65.7117L87.3502 61.9685C86.3013 58.1883 86.1567 54.2143 86.9282 50.3678L73.2016 47.6146ZM73.8599 65.7117C75.4962 71.6088 78.4973 77.0381 82.6206 81.5605L92.9661 72.128C90.3229 69.2291 88.3991 65.7487 87.3502 61.9685L73.8599 65.7117ZM82.6206 81.5605C86.7439 86.0829 91.8737 89.5715 97.595 91.7441L102.565 78.6559C98.8975 77.2632 95.6092 75.027 92.9661 72.128L82.6206 81.5605ZM105 112.003C105.009 131.429 112.175 150.17 125.129 164.646L135.562 155.311C124.904 143.4 119.008 127.98 119 111.997L105 112.003ZM125.129 164.646C138.083 179.122 155.917 188.318 175.222 190.477L176.778 176.563C160.894 174.787 146.22 167.221 135.562 155.311L125.129 164.646ZM183 183.52V157.76H169V183.52H183ZM179.5 151.698C177.784 150.707 176.443 149.178 175.685 147.348L162.751 152.705C164.688 157.383 168.115 161.291 172.5 163.822L179.5 151.698ZM175.685 147.348C174.927 145.517 174.794 143.488 175.307 141.574L161.784 137.951C160.473 142.841 160.813 148.028 162.751 152.705L175.685 147.348ZM175.307 141.574C175.819 139.661 176.949 137.969 178.521 136.763L169.999 125.656C165.982 128.739 163.094 133.06 161.784 137.951L175.307 141.574ZM178.521 136.763C180.093 135.557 182.019 134.904 184 134.904V120.904C178.937 120.904 174.015 122.574 169.999 125.656L178.521 136.763ZM184 134.904C185.981 134.904 187.907 135.557 189.479 136.763L198.002 125.656C193.985 122.574 189.063 120.904 184 120.904V134.904ZM189.479 136.763C191.051 137.969 192.181 139.661 192.693 141.574L206.216 137.951C204.906 133.06 202.018 128.739 198.002 125.656L189.479 136.763ZM192.693 141.574C193.206 143.488 193.073 145.517 192.315 147.348L205.249 152.705C207.187 148.028 207.527 142.841 206.216 137.951L192.693 141.574ZM192.315 147.348C191.557 149.178 190.216 150.707 188.5 151.698L195.5 163.822C199.885 161.291 203.312 157.383 205.249 152.705L192.315 147.348ZM185 157.76V183.52H199V157.76H185ZM192.778 190.477C207.935 188.782 222.278 182.736 234.075 173.068L225.201 162.24C215.495 170.194 203.694 175.169 191.222 176.563L192.778 190.477ZM234.075 173.068C245.871 163.401 254.617 150.525 259.257 135.996L245.92 131.737C242.103 143.692 234.907 154.286 225.201 162.24L234.075 173.068ZM259.257 135.996C263.896 121.467 264.23 105.905 260.219 91.1899L246.712 94.8717C250.012 106.979 249.737 119.783 245.92 131.737L259.257 135.996ZM260.219 91.1899C256.208 76.4748 248.023 63.2355 236.653 53.0702L227.322 63.5074C236.677 71.8712 243.412 82.7644 246.712 94.8717L260.219 91.1899ZM236.653 53.0702C225.282 42.9049 211.212 36.2484 196.141 33.9044L193.99 47.7381C206.39 49.6667 217.966 55.1436 227.322 63.5074L236.653 53.0702ZM196.141 33.9044C181.071 31.5603 165.644 33.629 151.723 39.8605L157.443 52.6387C168.897 47.5114 181.59 45.8094 193.99 47.7381L196.141 33.9044ZM151.723 39.8605C137.802 46.092 125.983 56.22 117.692 69.0217L129.442 76.6321C136.264 66.099 145.989 57.7659 157.443 52.6387L151.723 39.8605ZM117.692 69.0217C109.401 81.8234 104.993 96.7514 105 112.003L119 111.997C118.994 99.4476 122.621 87.1651 129.442 76.6321L117.692 69.0217ZM167 376C167 359.291 160.363 343.267 148.548 331.452L138.648 341.352C147.838 350.541 153 363.004 153 376L167 376ZM148.548 331.452C136.733 319.637 120.709 313 104 313V327C116.996 327 129.459 332.162 138.648 341.352L148.548 331.452ZM104 313C87.2914 313 71.2671 319.637 59.4523 331.452L69.3518 341.352C78.5411 332.162 91.0044 327 104 327V313ZM59.4523 331.452C47.6375 343.267 41 359.291 41 376L55 376C55 363.004 60.1625 350.541 69.3518 341.352L59.4523 331.452ZM41 376V416H55V376H41ZM41 416C41 432.709 47.6375 448.733 59.4523 460.548L69.3518 450.648C60.1625 441.459 55 428.996 55 416L41 416ZM59.4523 460.548C71.2671 472.363 87.2914 479 104 479V465C91.0044 465 78.5411 459.838 69.3518 450.648L59.4523 460.548ZM104 479C120.709 479 136.733 472.363 148.548 460.548L138.648 450.648C129.459 459.838 116.996 465 104 465V479ZM148.548 460.548C160.363 448.733 167 432.709 167 416L153 416C153 428.996 147.838 441.459 138.648 450.648L148.548 460.548ZM167 416V376H153V416H167ZM191.025 385.068C186.365 385.724 181.635 385.724 176.975 385.068L175.025 398.932C180.979 399.769 187.021 399.769 192.975 398.932L191.025 385.068ZM175.476 398.98C181.151 399.407 186.849 399.407 192.524 398.98L191.476 385.02C186.499 385.394 181.501 385.394 176.524 385.02L175.476 398.98ZM327 376C327 359.291 320.363 343.267 308.548 331.452L298.648 341.352C307.838 350.541 313 363.004 313 376L327 376ZM308.548 331.452C296.733 319.637 280.709 313 264 313V327C276.996 327 289.459 332.162 298.648 341.352L308.548 331.452ZM264 313C247.291 313 231.267 319.637 219.452 331.452L229.352 341.352C238.541 332.162 251.004 327 264 327V313ZM219.452 331.452C207.638 343.267 201 359.291 201 376H215C215 363.004 220.163 350.541 229.352 341.352L219.452 331.452ZM201 376V416H215V376H201ZM201 416C201 432.709 207.638 448.733 219.452 460.548L229.352 450.648C220.163 441.459 215 428.996 215 416H201ZM219.452 460.548C231.267 472.363 247.291 479 264 479V465C251.004 465 238.541 459.838 229.352 450.648L219.452 460.548ZM264 479C280.709 479 296.733 472.363 308.548 460.548L298.648 450.648C289.459 459.838 276.996 465 264 465V479ZM308.548 460.548C320.363 448.733 327 432.709 327 416H313C313 428.996 307.838 441.459 298.648 450.648L308.548 460.548ZM327 416V376H313V416H327ZM228.992 179.299C215.673 188.196 200.016 192.944 184 192.944V206.944C202.785 206.944 221.148 201.375 236.768 190.941L228.992 179.299ZM184 192.944C167.984 192.944 152.327 188.196 139.008 179.299L131.232 190.941C146.852 201.375 165.215 206.944 184 206.944V192.944ZM132.332 178.699C59.97 210.118 11.1441 270.116 17.0361 327.91L30.9639 326.49C25.9759 277.564 68.03 221.882 137.908 191.541L132.332 178.699ZM17.0347 327.896C18.2707 340.274 21.9057 352.293 27.7366 363.281L40.1034 356.719C35.1246 347.336 32.0208 337.074 30.9654 326.504L17.0347 327.896ZM40.7338 361.604C42.9243 352.297 47.141 343.588 53.0833 336.098L42.1155 327.397C34.8934 336.5 29.7685 347.085 27.1062 358.396L40.7338 361.604ZM53.0833 336.098C59.0255 328.608 66.547 322.52 75.1116 318.27L68.8884 305.73C58.4792 310.895 49.3377 318.293 42.1155 327.397L53.0833 336.098ZM79 312V274.64H65V312H79ZM79 274.655C79.0195 265.467 80.1822 256.317 82.4612 247.416L68.8988 243.944C66.3316 253.97 65.022 264.276 65 274.625L79 274.655ZM82.4443 247.481C82.5124 247.225 82.679 247.007 82.9077 246.874L75.8658 234.774C72.4359 236.77 69.9367 240.044 68.9157 243.879L82.4443 247.481ZM82.9077 246.874C83.1363 246.741 83.4084 246.704 83.6644 246.771L87.2157 233.229C83.377 232.222 79.2958 232.778 75.8658 234.774L82.9077 246.874ZM83.7045 246.781C83.832 246.814 83.9518 246.872 84.0571 246.951L92.4637 235.756C90.8851 234.57 89.088 233.708 87.1755 233.219L83.7045 246.781ZM84.0571 246.951C84.1623 247.03 84.2509 247.129 84.3178 247.242L96.3747 240.126C95.3713 238.426 94.0423 236.941 92.4637 235.756L84.0571 246.951ZM84.3178 247.242C84.3847 247.355 84.4285 247.481 84.4468 247.611L98.3106 245.663C98.0359 243.708 97.3781 241.827 96.3747 240.126L84.3178 247.242ZM84.4468 247.611C84.4652 247.741 84.4576 247.874 84.4245 248.001L97.9755 251.519C98.4715 249.608 98.5853 247.618 98.3106 245.663L84.4468 247.611ZM84.4322 247.972C82.1317 256.68 80.9779 265.651 81 274.657L95 274.623C94.9809 266.835 95.9786 259.078 97.9678 251.548L84.4322 247.972ZM81 274.64V305.84H95V274.64H81ZM89.5935 312.656C94.3145 311.553 99.1471 310.997 103.995 311L104.005 297C98.0803 296.996 92.1753 297.675 86.4065 299.024L89.5935 312.656ZM104 311C121.115 310.999 137.54 317.748 149.709 329.782L159.553 319.827C144.763 305.201 124.8 296.999 104 297L104 311ZM149.709 329.782C155.1 335.113 159.995 345.681 163.559 358.208C167.048 370.475 168.903 383.319 169 392.078L183 391.922C182.886 381.725 180.796 367.636 177.024 354.377C173.326 341.378 167.641 327.826 159.553 319.827L149.709 329.782ZM174.75 398.887C180.867 399.998 187.133 399.998 193.25 398.887L190.75 385.113C186.286 385.923 181.714 385.923 177.25 385.113L174.75 398.887ZM199 392.078C199.097 383.319 200.952 370.475 204.441 358.208C208.005 345.681 212.9 335.113 218.291 329.782L208.447 319.827C200.359 327.826 194.674 341.378 190.976 354.377C187.204 367.636 185.114 381.725 185 391.922L199 392.078ZM218.291 329.782C230.46 317.748 246.885 310.999 264 311L264 297C243.2 296.999 223.238 305.201 208.447 319.827L218.291 329.782ZM264.005 311C268.853 310.997 273.686 311.553 278.407 312.656L281.594 299.024C275.825 297.675 269.92 296.996 263.995 297L264.005 311ZM287 305.84V274.64H273V305.84H287ZM287 274.646C287.008 265.741 285.885 256.871 283.658 248.249L270.103 251.751C272.033 259.225 273.007 266.914 273 274.634L287 274.646ZM283.659 248.253C283.591 247.993 283.63 247.716 283.767 247.485L271.71 240.369C269.686 243.798 269.108 247.891 270.102 251.747L283.659 248.253ZM283.767 247.485C283.904 247.253 284.127 247.086 284.387 247.018L280.893 233.462C277.037 234.455 273.734 236.94 271.71 240.369L283.767 247.485ZM284.387 247.018C284.647 246.951 284.924 246.99 285.155 247.127L292.271 235.07C288.842 233.046 284.749 232.468 280.893 233.462L284.387 247.018ZM285.155 247.127C285.387 247.264 285.554 247.487 285.622 247.747L299.179 244.253C298.185 240.397 295.7 237.094 292.271 235.07L285.155 247.127ZM285.62 247.74C287.874 256.526 289.01 265.562 289 274.632L303 274.648C303.011 264.398 301.728 254.188 299.18 244.26L285.62 247.74ZM289 274.64V312H303V274.64H289ZM292.888 318.27C301.453 322.52 308.974 328.608 314.917 336.098L325.885 327.397C318.662 318.293 309.521 310.895 299.112 305.73L292.888 318.27ZM314.917 336.098C320.859 343.588 325.076 352.297 327.266 361.604L340.894 358.396C338.232 347.085 333.107 336.5 325.885 327.397L314.917 336.098ZM340.263 363.281C346.094 352.293 349.729 340.274 350.965 327.896L337.035 326.504C335.979 337.074 332.875 347.336 327.897 356.719L340.263 363.281ZM350.964 327.91C356.856 270.116 308.03 210.118 235.668 178.699L230.092 191.541C299.97 221.882 342.024 277.564 337.036 326.49L350.964 327.91Z" fill="black" mask="url(#path-1-outside-1_785_14)"/>
</svg>
