<svg width="338" height="406" viewBox="0 0 338 406" fill="none" xmlns="http://www.w3.org/2000/svg">
<path d="M53.2816 197.147C31.2912 234.521 19.6667 277.292 19.6667 320.854V323.438C19.6667 361.605 47.7712 394.501 85.032 399.918C112.885 403.98 140.949 406 169 406C197.051 406 225.115 403.98 252.968 399.916C290.229 394.499 318.333 361.603 318.333 323.438V320.854C318.333 277.292 306.709 234.521 284.718 197.147C266.197 165.689 236.75 143.459 201.791 134.563C180.332 129.063 157.646 129.104 136.209 134.563C101.25 143.459 71.8011 165.689 53.2816 197.147ZM146.739 175.897C154.022 174.043 161.51 173.125 169 173.125C176.49 173.125 183.978 174.043 191.261 175.897C215.106 181.981 235.251 197.209 247.948 218.772C266.084 249.603 275.667 284.895 275.667 320.854V323.438C275.667 340.583 263.261 355.312 246.822 357.708C195.176 365.209 142.822 365.209 91.176 357.708C74.7387 355.312 62.3333 340.583 62.3333 323.438V320.854C62.3333 284.897 71.9163 249.605 90.0517 218.77C102.749 197.209 122.886 181.979 146.739 175.897ZM169 107.333C192.531 107.333 211.667 88.1867 211.667 64.6667C211.667 51.1243 201 0.666687 169 0.666687C137 0.666687 126.333 51.1243 126.333 64.6667C126.333 88.1867 145.469 107.333 169 107.333ZM335.406 118.083C338.937 104.999 341.791 53.5414 310.886 45.1659C280.177 36.8544 256.563 82.7488 253.032 95.8326C246.897 118.521 260.375 142 283.116 148.165C286.813 149.166 290.534 149.625 294.188 149.625C313 149.625 330.271 137.083 335.406 118.083ZM2.21814 117.418C5 128.46 11.9163 137.772 21.6869 143.626C28.3963 147.647 35.9056 149.71 43.5195 149.71C47.0203 149.71 50.5296 149.273 54.0091 148.398C65.0619 145.625 74.3653 138.687 80.2192 128.916C86.0731 119.124 87.7605 107.666 84.9787 96.6048C82.7301 87.6662 76.4688 75.4784 69.0107 65.5414C52.8848 44.0416 37.7915 42.5206 27.9888 44.9376C-3.02133 52.7286 -1.08426 104.251 2.21814 117.418ZM43.6048 107.022C43.5941 106.96 43.5621 106.877 43.5515 106.813C43.5728 106.875 43.5835 106.937 43.6048 107.022Z" fill="black"/>
</svg>
