<svg width="512" height="512" viewBox="0 0 512 512" fill="none" xmlns="http://www.w3.org/2000/svg">
<path d="M256 0C114.624 0 0 114.624 0 256C0 397.376 114.624 512 256 512C397.376 512 512 397.376 512 256C512 114.624 397.376 0 256 0ZM256 64C339.312 64 409.68 117.664 436.256 192H75.744C102.32 117.664 172.688 64 256 64ZM256 288C251.739 288.096 247.501 287.34 243.536 285.776C239.57 284.213 235.958 281.872 232.909 278.893C229.861 275.913 227.439 272.355 225.784 268.426C224.13 264.498 223.278 260.279 223.277 256.016C223.275 251.754 224.126 247.534 225.778 243.605C227.43 239.675 229.851 236.116 232.898 233.135C235.945 230.154 239.556 227.812 243.521 226.246C247.485 224.68 251.723 223.922 255.984 224.016C264.345 224.201 272.301 227.652 278.15 233.629C283.998 239.607 287.274 247.637 287.277 256C287.279 264.363 284.007 272.395 278.161 278.375C272.316 284.356 264.361 287.811 256 288ZM64 256C151.44 256 222.256 340.256 223.744 444.752C133.248 429.248 64 350.816 64 256ZM288.256 444.752C289.744 340.256 360.56 256 448 256C448 350.816 378.752 429.248 288.256 444.752Z" fill="black"/>
</svg>
