<svg width="384" height="428" viewBox="0 0 384 428" fill="none" xmlns="http://www.w3.org/2000/svg">
<path d="M362.667 128.667L234.667 16.4533C222.933 5.95831 207.743 0.156128 192 0.156128C176.257 0.156128 161.067 5.95831 149.333 16.4533L21.3333 128.667C14.5572 134.727 9.14987 142.161 5.47141 150.475C1.79294 158.788 -0.0722554 167.789 8.11418e-06 176.88V363.333C8.11418e-06 380.307 6.74285 396.586 18.7452 408.588C30.7475 420.591 47.0262 427.333 64 427.333H320C336.974 427.333 353.253 420.591 365.255 408.588C377.257 396.586 384 380.307 384 363.333V176.667C384.042 167.612 382.162 158.652 378.485 150.377C374.807 142.103 369.416 134.703 362.667 128.667ZM234.667 384.667H149.333V278C149.333 272.342 151.581 266.916 155.582 262.915C159.583 258.914 165.009 256.667 170.667 256.667H213.333C218.991 256.667 224.417 258.914 228.418 262.915C232.419 266.916 234.667 272.342 234.667 278V384.667ZM341.333 363.333C341.333 368.991 339.086 374.418 335.085 378.418C331.084 382.419 325.658 384.667 320 384.667H277.333V278C277.333 261.026 270.59 244.747 258.588 232.745C246.586 220.743 230.307 214 213.333 214H170.667C153.693 214 137.414 220.743 125.412 232.745C113.409 244.747 106.667 261.026 106.667 278V384.667H64C58.3421 384.667 52.9158 382.419 48.9151 378.418C44.9143 374.418 42.6667 368.991 42.6667 363.333V176.667C42.6705 173.638 43.3193 170.644 44.57 167.885C45.8206 165.127 47.6444 162.666 49.92 160.667L177.92 48.6667C181.813 45.2465 186.818 43.3603 192 43.3603C197.182 43.3603 202.187 45.2465 206.08 48.6667L334.08 160.667C336.356 162.666 338.179 165.127 339.43 167.885C340.681 170.644 341.329 173.638 341.333 176.667V363.333Z" fill="black"/>
</svg>
