<svg width="107" height="52" viewBox="0 0 107 52" fill="none" xmlns="http://www.w3.org/2000/svg">
<path d="M12.7578 10.9141C12.7578 10.3047 13.0078 9.8125 13.5078 9.4375C14.0078 9.0625 14.4922 8.875 14.9609 8.875C15.6172 8.89063 16.1953 9.10156 16.6953 9.50781C17.1953 9.91406 17.4453 10.4609 17.4453 11.1484L17.4688 24.3203L35 24.2969L35.0234 11.1484C34.9766 10.5234 35.1875 9.99219 35.6562 9.55469C36.1406 9.10156 36.7031 8.875 37.3438 8.875C37.9844 8.875 38.5391 9.09375 39.0078 9.53125C39.4766 9.96875 39.7109 10.5078 39.7109 11.1484L39.6875 40.9375C39.6875 41.5625 39.4531 42.1016 38.9844 42.5547C38.5312 42.9922 37.9844 43.2109 37.3438 43.2109C36.7031 43.2109 36.1484 43 35.6797 42.5781C35.2266 42.1406 35 41.6094 35 40.9844V29.0312L17.4922 29.0547L17.5156 41.0078C17.5156 41.6484 17.2891 42.1875 16.8359 42.625C16.3828 43.0625 15.8281 43.2812 15.1719 43.2812C14.5312 43.2812 13.9766 43.0625 13.5078 42.625C13.0547 42.1719 12.8281 41.6328 12.8281 41.0078C12.8125 36.0391 12.7969 31.0703 12.7812 26.1016C12.7812 21.1172 12.7734 16.1406 12.7578 11.1719V10.9141ZM60.0312 39.8359C59.1875 40.6484 58.1797 41.4688 57.0078 42.2969C55.8359 43.1094 54.4609 43.5156 52.8828 43.5156C50.8359 43.5156 49.1328 42.9766 47.7734 41.8984C46.4141 40.8047 45.4141 39.5391 44.7734 38.1016C44.2734 36.9609 43.9688 35.8359 43.8594 34.7266C43.7656 33.6016 43.7188 32.5469 43.7188 31.5625V19.7266C43.7188 19.0859 43.9453 18.5391 44.3984 18.0859C44.8672 17.6172 45.4219 17.3828 46.0625 17.3828C46.7031 17.3828 47.25 17.6172 47.7031 18.0859C48.1719 18.5391 48.4062 19.0859 48.4062 19.7266V31.5625C48.4062 32.4688 48.4453 33.3203 48.5234 34.1172C48.6172 34.8984 48.7969 35.5859 49.0625 36.1797C49.375 36.8672 49.8438 37.4844 50.4688 38.0312C51.0938 38.5625 51.8828 38.8281 52.8359 38.8281C55.1484 38.8281 56.9219 37.9453 58.1562 36.1797C59.4062 34.4141 60.0234 32.0312 60.0078 29.0312L59.9844 19.6797C59.9844 19.0391 60.2109 18.4922 60.6641 18.0391C61.1328 17.5703 61.6875 17.3359 62.3281 17.3359C62.9844 17.3359 63.5391 17.5703 63.9922 18.0391C64.4453 18.4922 64.6719 19.0469 64.6719 19.7031L64.7188 41.2422C64.7188 41.8828 64.5391 42.4375 64.1797 42.9062C63.8359 43.3594 63.3438 43.5859 62.7031 43.5859C62.0625 43.5859 61.5703 43.3594 61.2266 42.9062C60.8828 42.4375 60.6172 41.8828 60.4297 41.2422L60.0312 39.8359ZM94.1328 30.3672C94.1328 32.1016 93.8281 33.75 93.2188 35.3125C92.6094 36.875 91.75 38.2656 90.6406 39.4844C89.5312 40.6875 88.2266 41.6406 86.7266 42.3438C85.2422 43.0469 83.6172 43.3984 81.8516 43.3984C80.3984 43.3984 78.9375 43.0312 77.4688 42.2969C76.0156 41.5625 74.8438 40.5547 73.9531 39.2734L73.6719 41.1719C73.5781 41.8125 73.3672 42.3672 73.0391 42.8359C72.7266 43.2891 72.25 43.5156 71.6094 43.5156C70.9688 43.5156 70.4141 43.2891 69.9453 42.8359C69.4922 42.3672 69.2656 41.8125 69.2656 41.1719V11.2422C69.2656 10.6016 69.4922 10.0547 69.9453 9.60156C70.4141 9.13281 70.9688 8.89844 71.6094 8.89844C72.25 8.89844 72.7969 9.13281 73.25 9.60156C73.7188 10.0547 73.9531 10.6016 73.9531 11.2422V21.1094C74.9688 19.9375 76.1016 19.0078 77.3516 18.3203C78.6172 17.6328 80.0625 17.2891 81.6875 17.2891C83.2812 17.2891 84.8203 17.5938 86.3047 18.2031C87.7891 18.8125 89.1016 19.6719 90.2422 20.7812C91.5391 22.0625 92.5078 23.5391 93.1484 25.2109C93.8047 26.8828 94.1328 28.6016 94.1328 30.3672ZM81.8984 38.7109C83.3516 38.7109 84.6484 38.3203 85.7891 37.5391C86.9297 36.7578 87.8281 35.7344 88.4844 34.4688C89.1406 33.1875 89.4688 31.8203 89.4688 30.3672C89.4688 28.9141 89.1328 27.5469 88.4609 26.2656C87.8047 24.9688 86.8984 23.9219 85.7422 23.125C84.5859 22.3125 83.2656 21.9062 81.7812 21.9062C80.2969 21.9062 78.9766 22.2891 77.8203 23.0547C76.6641 23.8203 75.7578 24.8359 75.1016 26.1016C74.4453 27.3672 74.1172 28.75 74.1172 30.25C74.1172 31.3438 74.3047 32.4141 74.6797 33.4609C75.0703 34.5078 75.6172 35.4219 76.3203 36.2031C77.0234 36.9688 77.875 37.5781 78.875 38.0312C79.875 38.4844 80.8828 38.7109 81.8984 38.7109Z" fill="black"/>
<g clip-path="url(#clip0_433_146)">
<rect width="52" height="52" rx="13" fill="black"/>
<path d="M12.7578 10.9141C12.7578 10.3047 13.0078 9.8125 13.5078 9.4375C14.0078 9.0625 14.4922 8.875 14.9609 8.875C15.6172 8.89063 16.1953 9.10156 16.6953 9.50781C17.1953 9.91406 17.4453 10.4609 17.4453 11.1484L17.4688 24.3203L35 24.2969L35.0234 11.1484C34.9766 10.5234 35.1875 9.99219 35.6562 9.55469C36.1406 9.10156 36.7031 8.875 37.3438 8.875C37.9844 8.875 38.5391 9.09375 39.0078 9.53125C39.4766 9.96875 39.7109 10.5078 39.7109 11.1484L39.6875 40.9375C39.6875 41.5625 39.4531 42.1016 38.9844 42.5547C38.5312 42.9922 37.9844 43.2109 37.3438 43.2109C36.7031 43.2109 36.1484 43 35.6797 42.5781C35.2266 42.1406 35 41.6094 35 40.9844V29.0312L17.4922 29.0547L17.5156 41.0078C17.5156 41.6484 17.2891 42.1875 16.8359 42.625C16.3828 43.0625 15.8281 43.2812 15.1719 43.2812C14.5312 43.2812 13.9766 43.0625 13.5078 42.625C13.0547 42.1719 12.8281 41.6328 12.8281 41.0078C12.8125 36.0391 12.7969 31.0703 12.7812 26.1016C12.7812 21.1172 12.7734 16.1406 12.7578 11.1719V10.9141ZM60.0312 39.8359C59.1875 40.6484 58.1797 41.4688 57.0078 42.2969C55.8359 43.1094 54.4609 43.5156 52.8828 43.5156C50.8359 43.5156 49.1328 42.9766 47.7734 41.8984C46.4141 40.8047 45.4141 39.5391 44.7734 38.1016C44.2734 36.9609 43.9688 35.8359 43.8594 34.7266C43.7656 33.6016 43.7188 32.5469 43.7188 31.5625V19.7266C43.7188 19.0859 43.9453 18.5391 44.3984 18.0859C44.8672 17.6172 45.4219 17.3828 46.0625 17.3828C46.7031 17.3828 47.25 17.6172 47.7031 18.0859C48.1719 18.5391 48.4062 19.0859 48.4062 19.7266V31.5625C48.4062 32.4688 48.4453 33.3203 48.5234 34.1172C48.6172 34.8984 48.7969 35.5859 49.0625 36.1797C49.375 36.8672 49.8438 37.4844 50.4688 38.0312C51.0938 38.5625 51.8828 38.8281 52.8359 38.8281C55.1484 38.8281 56.9219 37.9453 58.1562 36.1797C59.4062 34.4141 60.0234 32.0312 60.0078 29.0312L59.9844 19.6797C59.9844 19.0391 60.2109 18.4922 60.6641 18.0391C61.1328 17.5703 61.6875 17.3359 62.3281 17.3359C62.9844 17.3359 63.5391 17.5703 63.9922 18.0391C64.4453 18.4922 64.6719 19.0469 64.6719 19.7031L64.7188 41.2422C64.7188 41.8828 64.5391 42.4375 64.1797 42.9062C63.8359 43.3594 63.3438 43.5859 62.7031 43.5859C62.0625 43.5859 61.5703 43.3594 61.2266 42.9062C60.8828 42.4375 60.6172 41.8828 60.4297 41.2422L60.0312 39.8359Z" fill="white"/>
</g>
<defs>
<clipPath id="clip0_433_146">
<rect width="52" height="52" rx="13" fill="white"/>
</clipPath>
</defs>
</svg>
