<svg width="107" height="52" viewBox="0 0 107 52" fill="none" xmlns="http://www.w3.org/2000/svg">
<path d="M12.7578 10.9141C12.7578 10.3047 13.0078 9.8125 13.5078 9.4375C14.0078 9.0625 14.4922 8.875 14.9609 8.875C15.6172 8.89063 16.1953 9.10156 16.6953 9.50781C17.1953 9.91406 17.4453 10.4609 17.4453 11.1484L17.4688 24.3203L35 24.2969L35.0234 11.1484C34.9766 10.5234 35.1875 9.99219 35.6562 9.55469C36.1406 9.10156 36.7031 8.875 37.3438 8.875C37.9844 8.875 38.5391 9.09375 39.0078 9.53125C39.4766 9.96875 39.7109 10.5078 39.7109 11.1484L39.6875 40.9375C39.6875 41.5625 39.4531 42.1016 38.9844 42.5547C38.5312 42.9922 37.9844 43.2109 37.3438 43.2109C36.7031 43.2109 36.1484 43 35.6797 42.5781C35.2266 42.1406 35 41.6094 35 40.9844V29.0312L17.4922 29.0547L17.5156 41.0078C17.5156 41.6484 17.2891 42.1875 16.8359 42.625C16.3828 43.0625 15.8281 43.2812 15.1719 43.2812C14.5312 43.2812 13.9766 43.0625 13.5078 42.625C13.0547 42.1719 12.8281 41.6328 12.8281 41.0078C12.8125 36.0391 12.7969 31.0703 12.7812 26.1016C12.7812 21.1172 12.7734 16.1406 12.7578 11.1719V10.9141ZM55.1094 17.4062C57.1875 17.4062 59.0938 17.9219 60.8281 18.9531C62.5625 19.9844 63.9531 21.375 65 23.125C66.0625 24.8594 66.5938 26.7891 66.5938 28.9141C66.5938 29.3516 66.5703 29.7969 66.5234 30.25C66.4609 30.8281 66.1953 31.3203 65.7266 31.7266C65.2734 32.1172 64.7578 32.3125 64.1797 32.3125L47.7969 32.3359C48.0625 33.4609 48.5625 34.5156 49.2969 35.5C50.0312 36.4844 50.9219 37.2812 51.9688 37.8906C53.0312 38.5 54.1875 38.8047 55.4375 38.8047C56.7812 38.8047 57.9844 38.4766 59.0469 37.8203C60.1094 37.1641 60.9375 36.4062 61.5312 35.5469C61.7188 35.25 62 35 62.375 34.7969C62.7656 34.5938 63.1328 34.4922 63.4766 34.4922C64.1172 34.4922 64.6641 34.7266 65.1172 35.1953C65.5859 35.6641 65.8203 36.2188 65.8203 36.8594C65.8203 37.3594 65.6797 37.8047 65.3984 38.1953C64.4297 39.6172 63.0938 40.8516 61.3906 41.8984C59.7031 42.9297 57.7422 43.4453 55.5078 43.4453C53.7109 43.4453 52.0391 43.0938 50.4922 42.3906C48.9609 41.6875 47.625 40.7266 46.4844 39.5078C45.3438 38.2891 44.4531 36.8906 43.8125 35.3125C43.1875 33.7188 42.875 32.0391 42.875 30.2734C42.875 28.5703 43.1875 26.9531 43.8125 25.4219C44.4375 23.875 45.3047 22.5 46.4141 21.2969C47.5391 20.0938 48.8438 19.1484 50.3281 18.4609C51.8125 17.7578 53.4062 17.4062 55.1094 17.4062ZM61.7656 27.625C61.4688 26.0938 60.7031 24.7891 59.4688 23.7109C58.2344 22.6328 56.7812 22.0938 55.1094 22.0938C53.4062 22.0938 51.8984 22.6484 50.5859 23.7578C49.2891 24.8672 48.4141 26.1641 47.9609 27.6484L61.7656 27.625ZM72.4531 8.80469C73.2031 8.80469 73.8047 9.05469 74.2578 9.55469C74.7109 10.0391 74.9297 10.5703 74.9141 11.1484V41.3359C74.9141 41.9609 74.6641 42.4688 74.1641 42.8594C73.6797 43.2344 73.1953 43.4219 72.7109 43.4219C72.0391 43.4219 71.4531 43.2031 70.9531 42.7656C70.4688 42.3281 70.2266 41.7656 70.2266 41.0781V11.1484C70.2266 10.5547 70.4375 10.0156 70.8594 9.53125C71.2969 9.04687 71.8281 8.80469 72.4531 8.80469ZM91.1562 17.3359C92.9531 17.3359 94.625 17.6797 96.1719 18.3672C97.7344 19.0547 99.1016 20.0078 100.273 21.2266C101.445 22.4453 102.359 23.8438 103.016 25.4219C103.688 27 104.023 28.6797 104.023 30.4609C104.023 32.2109 103.688 33.875 103.016 35.4531C102.344 37.0156 101.414 38.3984 100.227 39.6016C99.0547 40.7891 97.6875 41.7266 96.125 42.4141C94.5781 43.1016 92.9219 43.4453 91.1562 43.4453C89.4062 43.4453 87.75 43.1094 86.1875 42.4375C84.6406 41.7656 83.2734 40.8359 82.0859 39.6484C80.9141 38.4609 79.9922 37.0859 79.3203 35.5234C78.6484 33.9453 78.3125 32.2578 78.3125 30.4609C78.3125 28.6797 78.6484 27 79.3203 25.4219C79.9922 23.8438 80.9141 22.4531 82.0859 21.25C83.2734 20.0312 84.6406 19.0781 86.1875 18.3906C87.7344 17.6875 89.3906 17.3359 91.1562 17.3359ZM83.0469 30.5078C83.0469 32.0234 83.4141 33.4062 84.1484 34.6562C84.8984 35.8906 85.8906 36.875 87.125 37.6094C88.3594 38.3438 89.7109 38.7109 91.1797 38.7109C92.6797 38.7109 94.0391 38.3359 95.2578 37.5859C96.4922 36.8203 97.4688 35.8125 98.1875 34.5625C98.9219 33.3125 99.2891 31.9453 99.2891 30.4609C99.2891 28.9453 98.9297 27.5547 98.2109 26.2891C97.4922 25.0078 96.5156 23.9844 95.2812 23.2188C94.0625 22.4531 92.6875 22.0703 91.1562 22.0703C89.6094 22.0703 88.2266 22.4609 87.0078 23.2422C85.7891 24.0078 84.8203 25.0312 84.1016 26.3125C83.3984 27.5781 83.0469 28.9766 83.0469 30.5078Z" fill="white"/>
<mask id="mask0_371_1596" style="mask-type:luminance" maskUnits="userSpaceOnUse" x="0" y="0" width="52" height="52">
<path d="M39 0H13C5.8203 0 0 5.8203 0 13V39C0 46.1797 5.8203 52 13 52H39C46.1797 52 52 46.1797 52 39V13C52 5.8203 46.1797 0 39 0Z" fill="white"/>
</mask>
<g mask="url(#mask0_371_1596)">
<path d="M39 0H13C5.8203 0 0 5.8203 0 13V39C0 46.1797 5.8203 52 13 52H39C46.1797 52 52 46.1797 52 39V13C52 5.8203 46.1797 0 39 0Z" fill="#FEDD32"/>
<path d="M12.7578 10.9141C12.7578 10.3047 13.0078 9.8125 13.5078 9.4375C14.0078 9.0625 14.4922 8.875 14.9609 8.875C15.6172 8.89063 16.1953 9.10156 16.6953 9.50781C17.1953 9.91406 17.4453 10.4609 17.4453 11.1484L17.4688 24.3203L35 24.2969L35.0234 11.1484C34.9766 10.5234 35.1875 9.99219 35.6562 9.55469C36.1406 9.10156 36.7031 8.875 37.3438 8.875C37.9844 8.875 38.5391 9.09375 39.0078 9.53125C39.4766 9.96875 39.7109 10.5078 39.7109 11.1484L39.6875 40.9375C39.6875 41.5625 39.4531 42.1016 38.9844 42.5547C38.5312 42.9922 37.9844 43.2109 37.3438 43.2109C36.7031 43.2109 36.1484 43 35.6797 42.5781C35.2266 42.1406 35 41.6094 35 40.9844V29.0312L17.4922 29.0547L17.5156 41.0078C17.5156 41.6484 17.2891 42.1875 16.8359 42.625C16.3828 43.0625 15.8281 43.2812 15.1719 43.2812C14.5312 43.2812 13.9766 43.0625 13.5078 42.625C13.0547 42.1719 12.8281 41.6328 12.8281 41.0078C12.8125 36.0391 12.7969 31.0703 12.7812 26.1016C12.7812 21.1172 12.7734 16.1406 12.7578 11.1719V10.9141ZM55.1094 17.4062C57.1875 17.4062 59.0938 17.9219 60.8281 18.9531C62.5625 19.9844 63.9531 21.375 65 23.125C66.0625 24.8594 66.5938 26.7891 66.5938 28.9141C66.5938 29.3516 66.5703 29.7969 66.5234 30.25C66.4609 30.8281 66.1953 31.3203 65.7266 31.7266C65.2734 32.1172 64.7578 32.3125 64.1797 32.3125L47.7969 32.3359C48.0625 33.4609 48.5625 34.5156 49.2969 35.5C50.0312 36.4844 50.9219 37.2812 51.9688 37.8906C53.0312 38.5 54.1875 38.8047 55.4375 38.8047C56.7812 38.8047 57.9844 38.4766 59.0469 37.8203C60.1094 37.1641 60.9375 36.4062 61.5312 35.5469C61.7188 35.25 62 35 62.375 34.7969C62.7656 34.5938 63.1328 34.4922 63.4766 34.4922C64.1172 34.4922 64.6641 34.7266 65.1172 35.1953C65.5859 35.6641 65.8203 36.2188 65.8203 36.8594C65.8203 37.3594 65.6797 37.8047 65.3984 38.1953C64.4297 39.6172 63.0938 40.8516 61.3906 41.8984C59.7031 42.9297 57.7422 43.4453 55.5078 43.4453C53.7109 43.4453 52.0391 43.0938 50.4922 42.3906C48.9609 41.6875 47.625 40.7266 46.4844 39.5078C45.3438 38.2891 44.4531 36.8906 43.8125 35.3125C43.1875 33.7188 42.875 32.0391 42.875 30.2734C42.875 28.5703 43.1875 26.9531 43.8125 25.4219C44.4375 23.875 45.3047 22.5 46.4141 21.2969C47.5391 20.0938 48.8438 19.1484 50.3281 18.4609C51.8125 17.7578 53.4062 17.4062 55.1094 17.4062ZM61.7656 27.625C61.4688 26.0938 60.7031 24.7891 59.4688 23.7109C58.2344 22.6328 56.7812 22.0938 55.1094 22.0938C53.4062 22.0938 51.8984 22.6484 50.5859 23.7578C49.2891 24.8672 48.4141 26.1641 47.9609 27.6484L61.7656 27.625ZM72.4531 8.80469C73.2031 8.80469 73.8047 9.05469 74.2578 9.55469C74.7109 10.0391 74.9297 10.5703 74.9141 11.1484V41.3359C74.9141 41.9609 74.6641 42.4688 74.1641 42.8594C73.6797 43.2344 73.1953 43.4219 72.7109 43.4219C72.0391 43.4219 71.4531 43.2031 70.9531 42.7656C70.4688 42.3281 70.2266 41.7656 70.2266 41.0781V11.1484C70.2266 10.5547 70.4375 10.0156 70.8594 9.53125C71.2969 9.04687 71.8281 8.80469 72.4531 8.80469ZM91.1562 17.3359C92.9531 17.3359 94.625 17.6797 96.1719 18.3672C97.7344 19.0547 99.1016 20.0078 100.273 21.2266C101.445 22.4453 102.359 23.8438 103.016 25.4219C103.688 27 104.023 28.6797 104.023 30.4609C104.023 32.2109 103.688 33.875 103.016 35.4531C102.344 37.0156 101.414 38.3984 100.227 39.6016C99.0547 40.7891 97.6875 41.7266 96.125 42.4141C94.5781 43.1016 92.9219 43.4453 91.1562 43.4453C89.4062 43.4453 87.75 43.1094 86.1875 42.4375C84.6406 41.7656 83.2734 40.8359 82.0859 39.6484C80.9141 38.4609 79.9922 37.0859 79.3203 35.5234C78.6484 33.9453 78.3125 32.2578 78.3125 30.4609C78.3125 28.6797 78.6484 27 79.3203 25.4219C79.9922 23.8438 80.9141 22.4531 82.0859 21.25C83.2734 20.0312 84.6406 19.0781 86.1875 18.3906C87.7344 17.6875 89.3906 17.3359 91.1562 17.3359ZM83.0469 30.5078C83.0469 32.0234 83.4141 33.4062 84.1484 34.6562C84.8984 35.8906 85.8906 36.875 87.125 37.6094C88.3594 38.3438 89.7109 38.7109 91.1797 38.7109C92.6797 38.7109 94.0391 38.3359 95.2578 37.5859C96.4922 36.8203 97.4688 35.8125 98.1875 34.5625C98.9219 33.3125 99.2891 31.9453 99.2891 30.4609C99.2891 28.9453 98.9297 27.5547 98.2109 26.2891C97.4922 25.0078 96.5156 23.9844 95.2812 23.2188C94.0625 22.4531 92.6875 22.0703 91.1562 22.0703C89.6094 22.0703 88.2266 22.4609 87.0078 23.2422C85.7891 24.0078 84.8203 25.0312 84.1016 26.3125C83.3984 27.5781 83.0469 28.9766 83.0469 30.5078Z" fill="black"/>
</g>
</svg>
