<svg width="18" height="18" viewBox="0 0 18 18" fill="none" xmlns="http://www.w3.org/2000/svg">
<path d="M8.79028 17.4875C7.56806 17.4875 6.42222 17.2736 5.35278 16.8459C4.29352 16.4181 3.36157 15.8223 2.55694 15.0584C1.75231 14.2945 1.12083 13.4084 0.6625 12.4C0.214352 11.3815 -0.00972217 10.2866 -0.00972217 9.11531C-0.00972217 7.94401 0.214352 6.84401 0.6625 5.81531C1.12083 4.78661 1.75231 3.88522 2.55694 3.11114C3.36157 2.32688 4.29861 1.71577 5.36806 1.27781C6.44769 0.839847 7.6088 0.620866 8.85139 0.620866C10.0125 0.620866 11.0972 0.819477 12.1056 1.2167C13.1139 1.60374 14 2.14864 14.7639 2.85142C15.5278 3.54401 16.1236 4.36392 16.5514 5.31114C16.9792 6.25837 17.1931 7.28707 17.1931 8.39725C17.1931 9.4667 17.0097 10.3732 16.6431 11.1167C16.2866 11.85 15.8231 12.4051 15.2528 12.782C14.6824 13.1588 14.0866 13.3473 13.4653 13.3473C12.9458 13.3473 12.4773 13.225 12.0597 12.9806C11.6523 12.726 11.3519 12.4 11.1583 12.0028C10.7815 12.4102 10.3333 12.7361 9.81389 12.9806C9.29444 13.225 8.72917 13.3473 8.11806 13.3473C7.35417 13.3473 6.65648 13.1537 6.025 12.7667C5.39352 12.3797 4.88935 11.8602 4.5125 11.2084C4.14583 10.5565 3.9625 9.83846 3.9625 9.0542C3.9625 8.25975 4.14583 7.5417 4.5125 6.90003C4.88935 6.24818 5.39352 5.72874 6.025 5.3417C6.65648 4.95466 7.35417 4.76114 8.11806 4.76114C8.6375 4.76114 9.1213 4.84772 9.56944 5.02087C10.0278 5.19401 10.4352 5.43846 10.7917 5.7542V4.9292H12.5486V10.6125C12.5486 11.0505 12.6505 11.3713 12.8542 11.575C13.0681 11.7686 13.3125 11.8653 13.5875 11.8653C14.0866 11.8653 14.5042 11.575 14.8403 10.9945C15.1764 10.4037 15.3444 9.59401 15.3444 8.56531C15.3444 7.36346 15.0694 6.29401 14.5194 5.35698C13.9694 4.40975 13.2106 3.66624 12.2431 3.12642C11.2856 2.58661 10.1704 2.3167 8.89722 2.3167C7.88889 2.3167 6.95185 2.49494 6.08611 2.85142C5.23056 3.19772 4.48194 3.68151 3.84028 4.30281C3.2088 4.92411 2.71481 5.64216 2.35833 6.45698C2.01204 7.27179 1.83889 8.14772 1.83889 9.08475C1.83889 10.032 2.01204 10.913 2.35833 11.7278C2.71481 12.5324 3.2088 13.2403 3.84028 13.8514C4.48194 14.4625 5.22546 14.9361 6.07083 15.2723C6.9162 15.6186 7.83287 15.7917 8.82083 15.7917C10.5931 15.7917 12.1361 15.2417 13.45 14.1417L13.9083 15.8681C13.1954 16.3875 12.406 16.7848 11.5403 17.0598C10.6745 17.3449 9.75787 17.4875 8.79028 17.4875ZM8.40833 11.6056C8.86667 11.6056 9.28426 11.4936 9.66111 11.2695C10.038 11.0352 10.3333 10.7246 10.5472 10.3375C10.7713 9.9505 10.8833 9.52272 10.8833 9.0542C10.8833 8.58568 10.7713 8.1579 10.5472 7.77087C10.3333 7.38383 10.038 7.07827 9.66111 6.8542C9.28426 6.61994 8.86667 6.50281 8.40833 6.50281C7.95 6.50281 7.53241 6.61994 7.15556 6.8542C6.7787 7.07827 6.47824 7.38383 6.25417 7.77087C6.04028 8.1579 5.93333 8.58568 5.93333 9.0542C5.93333 9.52272 6.04028 9.9505 6.25417 10.3375C6.47824 10.7246 6.7787 11.0352 7.15556 11.2695C7.53241 11.4936 7.95 11.6056 8.40833 11.6056Z" fill="black"/>
</svg>
