<svg width="15" height="14" viewBox="0 0 15 14" fill="none" xmlns="http://www.w3.org/2000/svg">
<path d="M6.3717 0.476868C6.58552 -0.158958 7.48484 -0.158955 7.69866 0.47687L8.89306 4.02843C8.98888 4.31336 9.25593 4.5053 9.55654 4.5053L13.369 4.5053C14.053 4.5053 14.331 5.38529 13.7712 5.77823L10.7288 7.91388C10.4749 8.09206 10.3686 8.41601 10.4675 8.70995L11.6393 12.1944C11.8547 12.8351 11.1269 13.3788 10.5736 12.9904L7.43735 10.7889C7.196 10.6195 6.87436 10.6195 6.63301 10.7889L3.49674 12.9904C2.94348 13.3788 2.21562 12.8351 2.43108 12.1944L3.6029 8.70995C3.70175 8.41601 3.59541 8.09206 3.34159 7.91388L0.299148 5.77823C-0.260634 5.38529 0.0173944 4.5053 0.701323 4.5053L4.51382 4.5053C4.81443 4.5053 5.08148 4.31336 5.1773 4.02843L6.3717 0.476868Z" fill="#FF4363"/>
</svg>
