<svg width="251" height="297" viewBox="0 0 251 297" fill="none" xmlns="http://www.w3.org/2000/svg">
<path d="M148.318 22.8182H102.682C99.6559 22.8182 96.754 21.6162 94.6144 19.4765C92.4747 17.3369 91.2727 14.435 91.2727 11.4091C91.2727 8.38321 92.4747 5.48126 94.6144 3.34164C96.754 1.20203 99.6559 0 102.682 0H148.318C151.344 0 154.246 1.20203 156.386 3.34164C158.525 5.48126 159.727 8.38321 159.727 11.4091C159.727 14.435 158.525 17.3369 156.386 19.4765C154.246 21.6162 151.344 22.8182 148.318 22.8182Z" fill="#DC2626"/>
<path d="M239.591 34.2273H11.4091C8.38321 34.2273 5.48127 35.4293 3.34165 37.5689C1.20203 39.7086 0 42.6105 0 45.6364C0 48.6623 1.20203 51.5642 3.34165 53.7038C5.48127 55.8434 8.38321 57.0455 11.4091 57.0455H22.8182V262.409C22.8272 271.484 26.4362 280.185 32.8531 286.601C39.27 293.018 47.9706 296.627 57.0455 296.636H193.955C203.029 296.627 211.73 293.018 218.147 286.601C224.564 280.185 228.173 271.484 228.182 262.409V57.0455H239.591C242.617 57.0455 245.519 55.8434 247.658 53.7038C249.798 51.5642 251 48.6623 251 45.6364C251 42.6105 249.798 39.7086 247.658 37.5689C245.519 35.4293 242.617 34.2273 239.591 34.2273ZM205.364 262.409C205.364 265.435 204.162 268.337 202.022 270.477C199.882 272.616 196.98 273.818 193.955 273.818H57.0455C54.0196 273.818 51.1176 272.616 48.978 270.477C46.8384 268.337 45.6364 265.435 45.6364 262.409V57.0455H205.364V262.409Z" fill="#DC2626"/>
<path d="M91.2726 239.591C88.2467 239.591 85.3448 238.389 83.2052 236.249C81.0656 234.11 79.8635 231.208 79.8635 228.182V102.682C79.8635 99.6559 81.0656 96.754 83.2052 94.6144C85.3448 92.4747 88.2467 91.2727 91.2726 91.2727C94.2985 91.2727 97.2004 92.4747 99.3401 94.6144C101.48 96.754 102.682 99.6559 102.682 102.682V228.182C102.682 231.208 101.48 234.11 99.3401 236.249C97.2004 238.389 94.2985 239.591 91.2726 239.591ZM159.727 239.591C156.701 239.591 153.799 238.389 151.66 236.249C149.52 234.11 148.318 231.208 148.318 228.182V102.682C148.318 99.6559 149.52 96.754 151.66 94.6144C153.799 92.4747 156.701 91.2727 159.727 91.2727C162.753 91.2727 165.655 92.4747 167.795 94.6144C169.934 96.754 171.136 99.6559 171.136 102.682V228.182C171.136 231.208 169.934 234.11 167.795 236.249C165.655 238.389 162.753 239.591 159.727 239.591Z" fill="#DC2626"/>
</svg>
