<svg width="428" height="428" viewBox="0 0 428 428" fill="none" xmlns="http://www.w3.org/2000/svg">
<path d="M214 0.666687C171.807 0.666687 130.561 13.1785 95.4784 36.6198C60.3959 60.0612 33.0525 93.3793 16.9058 132.361C0.75906 171.342 -3.46565 214.237 4.76586 255.619C12.9974 297.002 33.3154 335.014 63.1506 364.849C92.9858 394.685 130.998 415.003 172.381 423.234C213.763 431.466 256.658 427.241 295.639 411.094C334.621 394.948 367.939 367.604 391.38 332.522C414.822 297.439 427.333 256.193 427.333 214C427.333 185.985 421.815 158.244 411.094 132.361C400.373 106.478 384.659 82.9604 364.849 63.1506C345.04 43.3407 321.522 27.6267 295.639 16.9057C269.756 6.18472 242.015 0.666687 214 0.666687ZM214 384.667C180.245 384.667 147.249 374.657 119.183 355.904C91.1167 337.151 69.242 310.497 56.3246 279.311C43.4073 248.126 40.0275 213.811 46.6127 180.705C53.1979 147.599 69.4523 117.189 93.3205 93.3205C117.189 69.4523 147.599 53.1979 180.705 46.6127C213.811 40.0275 248.126 43.4072 279.311 56.3246C310.497 69.2419 337.151 91.1167 355.904 119.183C374.657 147.249 384.667 180.245 384.667 214C384.667 259.264 366.686 302.673 334.68 334.68C302.673 366.686 259.264 384.667 214 384.667Z" fill="black"/>
<path d="M271.6 136.987L190.96 243.653L156.187 198.64C152.707 194.17 147.594 191.266 141.973 190.566C136.352 189.866 130.683 191.427 126.213 194.907C121.744 198.386 118.839 203.499 118.139 209.12C117.439 214.741 119 220.41 122.48 224.88L174.32 291.227C176.329 293.769 178.891 295.821 181.811 297.225C184.731 298.63 187.933 299.351 191.173 299.333C194.431 299.325 197.644 298.572 200.566 297.129C203.487 295.687 206.039 293.595 208.027 291.013L305.52 163.013C308.971 158.487 310.483 152.775 309.723 147.134C308.963 141.493 305.993 136.385 301.467 132.933C296.94 129.482 291.228 127.97 285.587 128.73C279.946 129.49 274.838 132.46 271.387 136.987H271.6Z" fill="black"/>
</svg>
