<svg width="20" height="20" viewBox="0 0 20 20" fill="none" xmlns="http://www.w3.org/2000/svg">
<path d="M15.6695 13.7275H8.39419C7.73211 13.7228 7.09085 13.4956 6.57353 13.0824C6.05621 12.6692 5.6929 12.094 5.54202 11.4493L4.3826 6.73625C4.27593 6.29863 4.27047 5.84244 4.36662 5.40239C4.46276 4.96234 4.658 4.55001 4.93747 4.19676C5.21694 3.84351 5.57329 3.55864 5.97941 3.36382C6.38553 3.16901 6.83073 3.06937 7.28115 3.07248H16.8464C17.2968 3.06937 17.742 3.16901 18.1481 3.36382C18.5542 3.55864 18.9106 3.84351 19.19 4.19676C19.4695 4.55001 19.6647 4.96234 19.7609 5.40239C19.857 5.84244 19.8516 6.29863 19.7449 6.73625L18.5855 11.4609C18.4289 12.1136 18.0549 12.6936 17.525 13.1055C16.9951 13.5175 16.3407 13.7368 15.6695 13.7275ZM7.24637 4.52176C7.01723 4.52245 6.79122 4.57499 6.58526 4.67543C6.3793 4.77587 6.19874 4.92161 6.0571 5.10173C5.91546 5.28185 5.8164 5.49168 5.76736 5.71551C5.71832 5.93935 5.72056 6.17137 5.77391 6.39422L6.93333 11.1189C7.01185 11.4499 7.2001 11.7447 7.46745 11.9552C7.7348 12.1658 8.06551 12.2796 8.40579 12.2783H15.6695C16.0098 12.2796 16.3405 12.1658 16.6079 11.9552C16.8752 11.7447 17.0635 11.4499 17.142 11.1189L18.3014 6.39422C18.3559 6.17128 18.359 5.93886 18.3105 5.71455C18.2619 5.49024 18.1629 5.27993 18.021 5.09952C17.8792 4.91911 17.6981 4.77334 17.4916 4.67324C17.2851 4.57314 17.0585 4.52134 16.829 4.52176H7.24637Z" fill="black"/>
<path d="M5.22898 7.97103C5.06343 7.96907 4.90353 7.91048 4.77591 7.80501C4.64829 7.69954 4.56063 7.55354 4.52753 7.39132L3.48985 2.88697C3.39403 2.47665 3.16179 2.11099 2.83112 1.84982C2.50045 1.58865 2.09093 1.44744 1.66956 1.44929H0.724637C0.532451 1.44929 0.348137 1.37295 0.212241 1.23705C0.0763455 1.10116 0 0.916843 0 0.724657C0 0.532471 0.0763455 0.348157 0.212241 0.212261C0.348137 0.0763657 0.532451 2.02128e-05 0.724637 2.02128e-05H1.66956C2.41843 -0.00259585 3.14606 0.248798 3.73359 0.713141C4.32113 1.17748 4.73385 1.82733 4.90434 2.55654L5.93623 7.06088C5.95856 7.15341 5.9623 7.24944 5.94722 7.34342C5.93214 7.4374 5.89855 7.52745 5.8484 7.60834C5.79825 7.68924 5.73253 7.75937 5.65505 7.81466C5.57758 7.86995 5.4899 7.90931 5.3971 7.93045C5.34263 7.9498 5.28628 7.9634 5.22898 7.97103ZM8.50434 20C8.04572 20 7.59739 19.864 7.21606 19.6092C6.83473 19.3544 6.53752 18.9923 6.36201 18.5685C6.1865 18.1448 6.14058 17.6786 6.23006 17.2288C6.31953 16.779 6.54038 16.3658 6.86467 16.0415C7.18897 15.7172 7.60215 15.4964 8.05196 15.4069C8.50177 15.3174 8.96801 15.3633 9.39172 15.5388C9.81543 15.7143 10.1776 16.0116 10.4324 16.3929C10.6872 16.7742 10.8232 17.2225 10.8232 17.6812C10.8232 18.2962 10.5789 18.886 10.144 19.3208C9.70914 19.7557 9.11933 20 8.50434 20ZM8.50434 16.7884C8.33006 16.7884 8.1597 16.8401 8.01479 16.9369C7.86989 17.0337 7.75695 17.1714 7.69025 17.3324C7.62356 17.4934 7.60611 17.6705 7.64011 17.8415C7.67411 18.0124 7.75803 18.1694 7.88127 18.2926C8.0045 18.4159 8.16151 18.4998 8.33243 18.5338C8.50336 18.5678 8.68053 18.5503 8.84154 18.4837C9.00255 18.417 9.14017 18.304 9.237 18.1591C9.33382 18.0142 9.3855 17.8438 9.3855 17.6696C9.3855 17.4359 9.29266 17.2117 9.12741 17.0465C8.96216 16.8812 8.73804 16.7884 8.50434 16.7884ZM16.5159 20C16.0573 20 15.609 19.864 15.2276 19.6092C14.8463 19.3544 14.5491 18.9923 14.3736 18.5685C14.1981 18.1448 14.1522 17.6786 14.2416 17.2288C14.3311 16.779 14.552 16.3658 14.8763 16.0415C15.2006 15.7172 15.6137 15.4964 16.0635 15.4069C16.5134 15.3174 16.9796 15.3633 17.4033 15.5388C17.827 15.7143 18.1892 16.0116 18.444 16.3929C18.6988 16.7742 18.8348 17.2225 18.8348 17.6812C18.8348 18.2962 18.5905 18.886 18.1556 19.3208C17.7207 19.7557 17.1309 20 16.5159 20ZM16.5159 16.7884C16.3419 16.7896 16.1721 16.8422 16.028 16.9397C15.8838 17.0372 15.7718 17.1753 15.706 17.3364C15.6402 17.4975 15.6236 17.6745 15.6582 17.845C15.6929 18.0155 15.7772 18.172 15.9007 18.2947C16.0242 18.4173 16.1812 18.5007 16.3519 18.5342C16.5227 18.5677 16.6996 18.5499 16.8603 18.4831C17.0209 18.4162 17.1582 18.3033 17.2548 18.1585C17.3513 18.0137 17.4029 17.8436 17.4029 17.6696C17.4029 17.5534 17.3799 17.4383 17.3353 17.331C17.2906 17.2237 17.2252 17.1263 17.1427 17.0444C17.0603 16.9625 16.9625 16.8978 16.8549 16.8538C16.7473 16.8099 16.6321 16.7876 16.5159 16.7884Z" fill="black"/>
<path d="M16.5159 16.7884H6.85798C6.25989 16.7884 5.68631 16.5508 5.2634 16.1279C4.84049 15.705 4.60291 15.1314 4.60291 14.5333C4.60291 13.9353 4.84049 13.3617 5.2634 12.9388C5.68631 12.5159 6.25989 12.2783 6.85798 12.2783H8.39421C8.58639 12.2783 8.77071 12.3546 8.9066 12.4905C9.0425 12.6264 9.11884 12.8107 9.11884 13.0029C9.11884 13.1951 9.0425 13.3794 8.9066 13.5153C8.77071 13.6512 8.58639 13.7275 8.39421 13.7275H6.85798C6.64427 13.7275 6.43931 13.8124 6.28819 13.9636C6.13708 14.1147 6.05218 14.3196 6.05218 14.5333C6.05218 14.747 6.13708 14.952 6.28819 15.1031C6.43931 15.2542 6.64427 15.3391 6.85798 15.3391H16.5159C16.7081 15.3391 16.8924 15.4155 17.0283 15.5514C17.1642 15.6873 17.2406 15.8716 17.2406 16.0638C17.2406 16.256 17.1642 16.4403 17.0283 16.5762C16.8924 16.7121 16.7081 16.7884 16.5159 16.7884Z" fill="black"/>
</svg>
