<svg width="52" height="52" viewBox="0 0 52 52" fill="none" xmlns="http://www.w3.org/2000/svg">
<g clip-path="url(#clip0_532_2)">
<rect width="52" height="52" rx="13" fill="black"/>
<path d="M12.7578 10.9141C12.7578 10.3047 13.0078 9.8125 13.5078 9.4375C14.0078 9.0625 14.4922 8.875 14.9609 8.875C15.6172 8.89063 16.1953 9.10156 16.6953 9.50781C17.1953 9.91406 17.4453 10.4609 17.4453 11.1484L17.4688 24.3203L35 24.2969L35.0234 11.1484C34.9766 10.5234 35.1875 9.99219 35.6562 9.55469C36.1406 9.10156 36.7031 8.875 37.3438 8.875C37.9844 8.875 38.5391 9.09375 39.0078 9.53125C39.4766 9.96875 39.7109 10.5078 39.7109 11.1484L39.6875 40.9375C39.6875 41.5625 39.4531 42.1016 38.9844 42.5547C38.5312 42.9922 37.9844 43.2109 37.3438 43.2109C36.7031 43.2109 36.1484 43 35.6797 42.5781C35.2266 42.1406 35 41.6094 35 40.9844V29.0312L17.4922 29.0547L17.5156 41.0078C17.5156 41.6484 17.2891 42.1875 16.8359 42.625C16.3828 43.0625 15.8281 43.2812 15.1719 43.2812C14.5312 43.2812 13.9766 43.0625 13.5078 42.625C13.0547 42.1719 12.8281 41.6328 12.8281 41.0078C12.8125 36.0391 12.7969 31.0703 12.7812 26.1016C12.7812 21.1172 12.7734 16.1406 12.7578 11.1719V10.9141Z" fill="white"/>
</g>
<defs>
<clipPath id="clip0_532_2">
<rect width="52" height="52" rx="13" fill="white"/>
</clipPath>
</defs>
</svg>
