<svg width="16" height="20" viewBox="0 0 16 20" fill="none" xmlns="http://www.w3.org/2000/svg">
<path d="M8 10.7605C7.69555 10.7571 7.39732 10.8433 7.14544 11.0074C6.89357 11.1716 6.70015 11.4059 6.59121 11.6788C6.48228 11.9516 6.46306 12.25 6.53615 12.5336C6.60923 12.8173 6.77111 13.0727 7 13.2654V14.5994C7 14.8539 7.10536 15.098 7.29289 15.278C7.48043 15.458 7.73478 15.5591 8 15.5591C8.26522 15.5591 8.51957 15.458 8.70711 15.278C8.89464 15.098 9 14.8539 9 14.5994V13.2654C9.22889 13.0727 9.39077 12.8173 9.46385 12.5336C9.53694 12.25 9.51772 11.9516 9.40879 11.6788C9.29985 11.4059 9.10643 11.1716 8.85456 11.0074C8.60268 10.8433 8.30445 10.7571 8 10.7605ZM13 6.92163V5.0022C13 3.72953 12.4732 2.509 11.5355 1.60909C10.5979 0.709177 9.32608 0.203613 8 0.203613C6.67392 0.203613 5.40215 0.709177 4.46447 1.60909C3.52678 2.509 3 3.72953 3 5.0022V6.92163C2.20435 6.92163 1.44129 7.22497 0.87868 7.76491C0.316071 8.30486 0 9.03718 0 9.80078V16.5188C0 17.2824 0.316071 18.0147 0.87868 18.5547C1.44129 19.0946 2.20435 19.3979 3 19.3979H13C13.7956 19.3979 14.5587 19.0946 15.1213 18.5547C15.6839 18.0147 16 17.2824 16 16.5188V9.80078C16 9.03718 15.6839 8.30486 15.1213 7.76491C14.5587 7.22497 13.7956 6.92163 13 6.92163ZM5 5.0022C5 4.2386 5.31607 3.50628 5.87868 2.96633C6.44129 2.42639 7.20435 2.12305 8 2.12305C8.79565 2.12305 9.55871 2.42639 10.1213 2.96633C10.6839 3.50628 11 4.2386 11 5.0022V6.92163H5V5.0022ZM14 16.5188C14 16.7733 13.8946 17.0174 13.7071 17.1974C13.5196 17.3774 13.2652 17.4785 13 17.4785H3C2.73478 17.4785 2.48043 17.3774 2.29289 17.1974C2.10536 17.0174 2 16.7733 2 16.5188V9.80078C2 9.54625 2.10536 9.30214 2.29289 9.12216C2.48043 8.94218 2.73478 8.84106 3 8.84106H13C13.2652 8.84106 13.5196 8.94218 13.7071 9.12216C13.8946 9.30214 14 9.54625 14 9.80078V16.5188Z" fill="black"/>
</svg>
