<svg width="30" height="19" viewBox="0 0 30 19" fill="none" xmlns="http://www.w3.org/2000/svg">
<path fill-rule="evenodd" clip-rule="evenodd" d="M2.47357 9.49928C4.13239 11.2558 9.00907 15.8327 14.7777 15.8327C17.2614 15.8327 19.5763 14.9645 21.537 13.8579C22.0442 13.5714 22.6886 13.7509 22.9752 14.2583C23.2612 14.7657 23.0818 15.41 22.5746 15.6963C20.3152 16.9715 17.6393 17.9439 14.7777 17.9439C6.76917 17.9439 0.24423 10.1745 0.24423 10.1745C-0.0814101 9.78331 -0.0814101 9.21526 0.24423 8.82405C0.24423 8.82405 6.76917 1.05469 14.7777 1.05469C22.7863 1.05469 29.3112 8.82405 29.3112 8.82405C29.6368 9.21526 29.6368 9.78331 29.3112 10.1745C29.3112 10.1745 28.4995 11.1538 27.094 12.4153C26.9146 12.5763 26.7251 12.742 26.5266 12.911C26.0833 13.2886 25.4167 13.235 25.0388 12.7914C24.6615 12.3478 24.7148 11.6811 25.1586 11.3036C25.3423 11.1469 25.5175 10.9935 25.6838 10.8442C26.268 10.3197 26.7393 9.84957 27.0782 9.49514C25.4157 7.73592 20.5421 3.1659 14.7777 3.1659C9.00907 3.1659 4.13239 7.74274 2.47357 9.49928Z" fill="black"/>
<path fill-rule="evenodd" clip-rule="evenodd" d="M14.7778 4.22217C11.865 4.22217 9.5 6.58715 9.5 9.49997C9.5 12.4128 11.865 14.7778 14.7778 14.7778C17.6906 14.7778 20.0556 12.4128 20.0556 9.49997C20.0556 6.58715 17.6906 4.22217 14.7778 4.22217ZM14.7778 6.33329C16.5253 6.33329 17.9445 7.75249 17.9445 9.49997C17.9445 11.2475 16.5253 12.6667 14.7778 12.6667C13.0303 12.6667 11.6111 11.2475 11.6111 9.49997C11.6111 7.75249 13.0303 6.33329 14.7778 6.33329Z" fill="black"/>
</svg>
